<svg width="638" height="437" viewBox="0 0 638 437" fill="none" xmlns="http://www.w3.org/2000/svg">
<g clipPath="url(#clip0_2748_6367)">
<path d="M471.805 31.314C509.285 74.8138 639.358 26.4875 637.988 106.688C636.386 200.596 581.613 247.563 611.569 319.467C639.511 386.539 545.627 434.205 379.288 432.813C212.951 431.416 -54.6395 348.582 9.82613 258.616C74.2947 168.648 31.3402 164.034 28.1968 124.272C25.0534 84.5109 57.6654 -2.70398 186.493 70.0286C315.321 142.761 376.894 -78.8419 471.805 31.314Z" fill="url(#paint0_linear_2748_6367)"/>
<path d="M473.202 102.293C474.61 88.089 464.224 75.4346 450.004 74.0287C435.784 72.6227 423.116 82.9975 421.709 97.2014C420.301 111.405 430.687 124.06 444.907 125.466C459.127 126.872 471.795 116.497 473.202 102.293Z" fill="#91B3FA"/>
<path d="M537.571 101.831C538.732 87.6044 528.128 75.1306 513.886 73.9702C499.643 72.8097 487.156 83.402 485.994 97.6288C484.832 111.856 495.436 124.329 509.679 125.49C523.921 126.65 536.409 116.058 537.571 101.831Z" fill="#91B3FA"/>
<path d="M601.748 103.794C603.532 89.6312 593.484 76.7061 579.306 74.9247C565.127 73.1433 552.188 83.1802 550.405 97.3428C548.621 111.505 558.669 124.43 572.848 126.212C587.026 127.993 599.965 117.956 601.748 103.794Z" fill="#91B3FA"/>
<path d="M462.853 94.2724C463.652 96.2183 464.098 98.347 464.098 100.582C464.098 109.751 456.657 117.184 447.478 117.184C438.298 117.184 430.857 109.751 430.857 100.582C430.857 91.4125 438.298 83.9797 447.478 83.9797C447.758 83.9797 448.039 83.9886 448.316 84.0004V79.7931C448.039 79.7813 447.758 79.7754 447.478 79.7754C435.973 79.7754 426.648 89.0921 426.648 100.582C426.648 112.074 435.975 121.388 447.478 121.388C458.983 121.388 468.307 112.072 468.307 100.582C468.307 97.7514 467.74 95.0566 466.716 92.5948L462.853 94.2724Z" fill="url(#paint1_linear_2748_6367)"/>
<path d="M520.36 114.628C517.795 116.243 514.761 117.184 511.505 117.184C502.326 117.184 494.885 109.751 494.885 100.582C494.885 91.4125 502.326 83.9797 511.505 83.9797C511.786 83.9797 512.066 83.9886 512.343 84.0004V79.7931C512.066 79.7813 511.786 79.7754 511.505 79.7754C500 79.7754 490.676 89.0921 490.676 100.582C490.676 112.074 500.003 121.388 511.505 121.388C515.519 121.388 519.268 120.253 522.45 118.287L520.36 114.628Z" fill="url(#paint2_linear_2748_6367)"/>
<path d="M589.962 109.916C586.972 114.303 581.93 117.184 576.216 117.184C567.037 117.184 559.596 109.751 559.596 100.582C559.596 91.4125 567.037 83.9797 576.216 83.9797C576.496 83.9797 576.777 83.9886 577.054 84.0004V79.7931C576.777 79.7813 576.496 79.7754 576.216 79.7754C564.711 79.7754 555.387 89.0921 555.387 100.582C555.387 112.074 564.714 121.388 576.216 121.388C583.332 121.388 589.616 117.821 593.374 112.381L589.962 109.916Z" fill="url(#paint3_linear_2748_6367)"/>
<g opacity="0.64">
<path d="M468.561 136.531H426.395C423.747 136.531 421.602 138.675 421.602 141.319C421.602 143.964 423.747 146.107 426.395 146.107H468.561C471.209 146.107 473.355 143.964 473.355 141.319C473.352 138.675 471.206 136.531 468.561 136.531Z" fill="#91B3FA"/>
<path d="M532.866 136.531H490.7C488.052 136.531 485.906 138.675 485.906 141.319C485.906 143.964 488.052 146.107 490.7 146.107H532.866C535.514 146.107 537.659 143.964 537.659 141.319C537.656 138.675 535.511 136.531 532.866 136.531Z" fill="#91B3FA"/>
<path d="M555.008 146.104H597.175C599.822 146.104 601.968 143.96 601.968 141.315C601.968 138.671 599.822 136.527 597.175 136.527H555.008C552.361 136.527 550.215 138.671 550.215 141.315C550.218 143.96 552.364 146.104 555.008 146.104Z" fill="#91B3FA"/>
<path d="M468.561 151.422H426.395C423.747 151.422 421.602 153.565 421.602 156.21V184.399C421.602 187.044 423.747 189.187 426.395 189.187H468.561C471.209 189.187 473.355 187.044 473.355 184.399V156.21C473.352 153.565 471.206 151.422 468.561 151.422Z" fill="#91B3FA"/>
<path d="M532.866 151.422H490.7C488.052 151.422 485.906 153.565 485.906 156.21V184.399C485.906 187.044 488.052 189.187 490.7 189.187H532.866C535.514 189.187 537.659 187.044 537.659 184.399V156.21C537.656 153.565 535.511 151.422 532.866 151.422Z" fill="#91B3FA"/>
<path d="M597.175 151.422H555.008C552.361 151.422 550.215 153.565 550.215 156.21V184.399C550.215 187.044 552.361 189.187 555.008 189.187H597.175C599.822 189.187 601.968 187.044 601.968 184.399V156.21C601.965 153.565 599.822 151.422 597.175 151.422Z" fill="#91B3FA"/>
</g>
<path d="M231.75 365.942C231.75 365.942 114.454 386.374 73.1558 304.605C35.3962 229.847 34.6701 152.872 34.8236 140.22C34.8324 139.427 34.0414 138.873 33.3005 139.159C29.6347 140.565 20.5585 141.921 17.6335 122.728C13.9381 98.4659 17.0048 55.3788 29.4222 49.5853C41.8395 43.7918 45.771 73.9799 43.9823 100.141C42.1937 126.301 41.6742 136.694 41.6742 136.694C41.6742 136.694 21.1754 390.926 231.75 365.942Z" fill="#BDD0FB"/>
<path d="M30.2717 133.281C30.1979 133.281 30.1241 133.272 30.0474 133.251C27.1489 132.514 24.6047 130.094 23.2381 126.777C22.0634 123.923 21.8213 120.88 21.659 117.752C20.8857 102.751 21.7387 87.6316 24.1885 72.8132C25.074 67.465 26.777 61.0199 32.1578 58.6199C32.6123 58.4165 33.1466 58.6199 33.3502 59.074C33.5539 59.528 33.3502 60.0617 32.8957 60.2651C28.303 62.3142 26.7829 68.205 25.9713 73.1081C23.5421 87.7997 22.698 102.789 23.4624 117.66C23.6159 120.624 23.8402 123.501 24.9087 126.093C26.0598 128.885 28.1466 130.91 30.4931 131.506C30.9771 131.63 31.2664 132.119 31.1454 132.6C31.0421 133.009 30.6731 133.281 30.2717 133.281Z" fill="#DCE5FE"/>
<path d="M65.35 183.41C65.35 183.41 54.7213 175.57 62.9769 148.569C70.2378 124.817 78.2809 109.955 88.4993 114.15C98.7177 118.346 81.7992 167.786 69.1221 183.209C69.1221 183.209 44.0927 421.364 233.434 418.095C233.434 418.095 55.7751 453.492 65.35 183.41Z" fill="#BDD0FB"/>
<path d="M65.9105 174.29C65.58 174.29 65.2612 174.107 65.1018 173.791C60.2405 164.047 68.257 137.441 78.133 121.909C78.8916 120.718 83.9654 116.213 86.123 116.891C88.3101 117.578 88.4665 120.279 87.9382 122.381C86.6897 127.343 84.6147 132.019 81.7694 136.274C81.492 136.687 80.9341 136.799 80.5179 136.521C80.1047 136.244 79.9925 135.687 80.27 135.271C83.0002 131.188 84.9896 126.701 86.1879 121.939C86.4831 120.768 86.5628 118.914 85.5799 118.607C84.6442 118.498 80.453 121.615 79.6531 122.871C69.1219 139.431 62.59 164.722 66.7134 172.984C66.9347 173.429 66.7547 173.968 66.309 174.192C66.185 174.257 66.0463 174.29 65.9105 174.29Z" fill="#DCE5FE"/>
<g opacity="0.91">
<path d="M106.46 79.9589C137.658 100.155 314.42 225.085 226.849 411.83C226.849 411.83 89.2876 359.506 101.605 82.4473C101.711 80.0237 104.42 78.641 106.46 79.9589Z" fill="#BDD0FB"/>
<path d="M119.496 114.93C119.496 114.93 129.54 129.636 143.714 152.267C145.476 155.101 147.315 158.052 149.215 161.11C151.093 164.179 153.035 167.351 155.03 170.615C158.991 177.157 163.15 184.071 167.353 191.28C171.583 198.474 175.853 205.963 180.154 213.599C182.276 217.432 184.416 221.294 186.565 225.174C188.666 229.078 190.818 232.975 192.893 236.914C194.965 240.853 197.075 244.775 199.082 248.728C200.095 250.701 201.107 252.667 202.117 254.631C203.123 256.594 204.088 258.57 205.071 260.531C206.048 262.491 207.019 264.446 207.987 266.392C208.932 268.35 209.871 270.295 210.803 272.23C212.692 276.089 214.466 279.945 216.222 283.734C219.729 291.311 222.97 298.709 225.924 305.773C228.87 312.84 231.535 319.577 233.837 325.857C235.039 328.976 236.063 332.016 237.055 334.899C237.55 336.341 238.035 337.745 238.507 339.11C238.961 340.481 239.363 341.825 239.773 343.122C240.57 345.723 241.376 348.137 242.013 350.402C242.642 352.672 243.218 354.757 243.737 356.641C243.997 357.584 244.239 358.474 244.469 359.315C244.67 360.161 244.856 360.957 245.03 361.697C245.378 363.174 245.673 364.433 245.915 365.453C246.396 367.493 246.653 368.581 246.653 368.581C246.807 369.227 246.405 369.873 245.759 370.026C245.112 370.179 244.466 369.778 244.313 369.133V369.127L244.301 369.077C244.301 369.077 244.053 367.998 243.586 365.978C243.353 364.967 243.067 363.722 242.728 362.257C242.559 361.523 242.376 360.736 242.184 359.895C241.96 359.061 241.721 358.177 241.47 357.242C240.963 355.373 240.402 353.3 239.791 351.048C239.168 348.798 238.38 346.392 237.601 343.806C237.199 342.518 236.807 341.179 236.361 339.814C235.901 338.455 235.425 337.058 234.938 335.622C233.964 332.75 232.964 329.725 231.78 326.612C229.522 320.352 226.901 313.63 224 306.575C221.089 299.519 217.896 292.131 214.434 284.557C212.701 280.771 210.951 276.914 209.082 273.055C208.162 271.121 207.235 269.172 206.302 267.217C205.346 265.271 204.384 263.317 203.418 261.356C202.447 259.395 201.491 257.42 200.496 255.453C199.499 253.49 198.498 251.52 197.497 249.548C195.514 245.591 193.427 241.667 191.376 237.722C189.325 233.78 187.193 229.877 185.116 225.97C182.987 222.087 180.871 218.219 178.77 214.38C174.511 206.735 170.281 199.232 166.09 192.023C161.925 184.799 157.805 177.874 153.879 171.317C151.901 168.047 149.977 164.869 148.114 161.791C146.228 158.73 144.41 155.77 142.66 152.931C139.145 147.261 135.892 142.084 132.979 137.514C130.071 132.941 127.507 128.973 125.384 125.712C121.134 119.193 118.646 115.511 118.646 115.511C118.489 115.278 118.548 114.962 118.782 114.803C119.024 114.638 119.339 114.697 119.496 114.93Z" fill="#DCE5FE"/>
</g>
<path d="M624.794 133.332C627.58 171.262 634.77 392.656 428 436.713C428 436.713 385.707 292.18 619.759 130.911C621.807 129.499 624.614 130.855 624.794 133.332Z" fill="#BDD0FB"/>
<path d="M604.261 165.581C604.261 165.581 598.453 182.864 588.718 208.415C587.493 211.605 586.215 214.928 584.893 218.368C583.544 221.797 582.151 225.344 580.72 228.988C577.821 236.265 574.743 243.927 571.449 251.814C568.184 259.71 564.704 267.827 561.124 276.053C559.303 280.154 557.47 284.287 555.628 288.436C553.736 292.563 551.883 296.726 549.946 300.854C548.007 304.979 546.106 309.124 544.117 313.205C543.131 315.251 542.148 317.291 541.168 319.328C540.185 321.363 539.167 323.373 538.175 325.384C537.175 327.395 536.18 329.394 535.188 331.387C534.173 333.365 533.161 335.335 532.157 337.293C530.171 341.22 528.116 345.05 526.106 348.823C522.08 356.368 518.04 363.586 514.09 370.361C510.135 377.133 506.278 383.472 502.567 389.23C500.761 392.141 498.908 394.853 497.166 397.445C496.295 398.742 495.448 400.004 494.622 401.23C493.784 402.448 492.931 403.607 492.128 404.745C490.496 407.003 489.02 409.152 487.565 411.075C486.098 412.988 484.749 414.748 483.533 416.338C482.922 417.131 482.346 417.882 481.8 418.587C481.23 419.274 480.696 419.917 480.2 420.518C479.209 421.715 478.362 422.735 477.677 423.561C476.307 425.215 475.575 426.094 475.575 426.094C475.153 426.604 474.395 426.674 473.884 426.253C473.373 425.831 473.303 425.073 473.725 424.563L473.728 424.56L473.76 424.522C473.76 424.522 474.486 423.652 475.85 422.022C476.532 421.208 477.373 420.203 478.362 419.021C478.857 418.431 479.389 417.794 479.955 417.116C480.498 416.417 481.074 415.677 481.682 414.893C482.898 413.321 484.241 411.585 485.705 409.692C487.16 407.79 488.636 405.662 490.268 403.427C491.074 402.3 491.924 401.154 492.765 399.948C493.592 398.73 494.442 397.48 495.312 396.194C497.057 393.624 498.91 390.938 500.723 388.048C504.442 382.334 508.314 376.043 512.287 369.312C516.254 362.577 520.315 355.401 524.368 347.895C526.39 344.139 528.459 340.329 530.46 336.42C531.472 334.471 532.491 332.51 533.512 330.541C534.51 328.557 535.513 326.566 536.52 324.565C537.52 322.56 538.544 320.558 539.536 318.532C540.525 316.504 541.514 314.469 542.508 312.432C544.515 308.366 546.431 304.239 548.388 300.129C550.342 296.019 552.213 291.867 554.123 287.755C555.982 283.618 557.833 279.499 559.672 275.413C563.288 267.213 566.803 259.123 570.103 251.248C573.429 243.388 576.543 235.743 579.474 228.49C580.923 224.855 582.331 221.32 583.695 217.9C585.032 214.471 586.325 211.154 587.564 207.972C590.023 201.601 592.243 195.749 594.176 190.545C596.115 185.347 597.771 180.801 599.126 177.053C601.826 169.556 603.296 165.251 603.296 165.251C603.388 164.986 603.677 164.844 603.943 164.933C604.211 165.027 604.353 165.316 604.261 165.581Z" fill="#DCE5FE"/>
<path d="M18.042 300.049C17.1771 298.427 19.0662 296.723 20.5892 297.752C35.3117 307.712 74.7301 332.619 106.427 336.735C158.036 343.434 216.17 375.995 219.889 415.149C219.892 415.149 112.286 476.69 18.042 300.049Z" fill="#BDD0FB"/>
<path d="M36.8492 316.098C36.8492 316.098 36.985 316.221 37.2506 316.457C37.5192 316.681 37.9177 317.015 38.4401 317.448C39.4997 318.327 41.0877 319.58 43.1036 321.181C45.1284 322.77 47.593 324.689 50.459 326.844C53.3102 329.017 56.5835 331.397 60.1372 334.009C63.7146 336.594 67.5929 339.384 71.7576 342.249C75.9046 345.142 80.3467 348.087 84.9424 351.133C89.5586 354.149 94.3432 357.242 99.2782 360.264C100.512 361.021 101.749 361.782 102.991 362.543C104.243 363.289 105.5 364.035 106.758 364.784C109.263 366.299 111.825 367.744 114.37 369.212C116.914 370.686 119.508 372.066 122.056 373.508C124.635 374.893 127.203 376.273 129.75 377.644C132.327 378.956 134.865 380.301 137.41 381.551C138.682 382.173 139.948 382.792 141.205 383.405C142.46 384.024 143.711 384.629 144.966 385.198C149.954 387.533 154.83 389.676 159.488 391.622C164.142 393.577 168.611 395.263 172.749 396.773C174.833 397.489 176.831 398.174 178.729 398.825C180.636 399.45 182.463 399.999 184.169 400.538C185.025 400.803 185.851 401.06 186.651 401.308C187.457 401.529 188.236 401.738 188.983 401.944C190.479 402.351 191.852 402.726 193.091 403.065C195.586 403.69 197.56 404.12 198.9 404.445C200.243 404.76 200.957 404.928 200.957 404.928L200.969 404.931C201.132 404.969 201.232 405.132 201.194 405.291C201.155 405.45 201.002 405.547 200.842 405.518C200.842 405.518 200.119 405.373 198.761 405.105C197.407 404.822 195.405 404.471 192.888 403.899C191.633 403.593 190.243 403.251 188.732 402.879C187.976 402.693 187.188 402.502 186.371 402.301C185.562 402.074 184.724 401.838 183.859 401.594C182.132 401.092 180.279 400.6 178.348 400.004C176.43 399.379 174.411 398.722 172.303 398.035C168.118 396.584 163.602 394.96 158.891 393.067C154.169 391.204 149.263 389.066 144.237 386.743C142.973 386.18 141.713 385.578 140.45 384.962C139.184 384.352 137.909 383.735 136.628 383.119C134.063 381.878 131.51 380.539 128.915 379.236C126.35 377.874 123.762 376.5 121.167 375.123C118.599 373.693 116.011 372.272 113.461 370.789C110.913 369.303 108.348 367.841 105.84 366.311C104.579 365.553 103.325 364.798 102.07 364.044C100.828 363.274 99.5881 362.505 98.3573 361.738C93.4193 358.683 88.6318 355.561 84.0185 352.516C79.4317 349.429 75.0339 346.392 70.9105 343.443C66.7753 340.516 62.9235 337.665 59.3757 335.029C52.3067 329.716 46.5599 325.099 42.5753 321.823C40.5889 320.178 39.0452 318.863 38.0033 317.952C37.4838 317.507 37.0735 317.127 36.802 316.888C36.5423 316.64 36.4094 316.513 36.4094 316.513C36.2884 316.398 36.2855 316.21 36.4006 316.089C36.5127 315.971 36.6987 315.965 36.8168 316.074L36.8492 316.098Z" fill="#DCE5FE"/>
<path d="M36.1358 249.281H26.3867V320.79H36.1358V249.281Z" fill="#7D97F4"/>
<path d="M52.4249 273.859H42.6758V320.791H52.4249V273.859Z" fill="#7D97F4"/>
<path d="M68.7139 213.117H58.9648V320.791H68.7139V213.117Z" fill="#7D97F4"/>
<path d="M84.9991 294.924H75.25V320.79H84.9991V294.924Z" fill="#7D97F4"/>
<path d="M101.288 227.514H91.5391V320.79H101.288V227.514Z" fill="#7D97F4"/>
<path d="M117.577 243.662H107.828V320.791H117.577V243.662Z" fill="#7D97F4"/>
<path d="M133.862 261.219H124.113V320.79H133.862V261.219Z" fill="#7D97F4"/>
<path d="M150.151 191.35H140.402V320.791H150.151V191.35Z" fill="#7D97F4"/>
<path d="M166.441 205.041H156.691V320.79H166.441V205.041Z" fill="#7D97F4"/>
<path d="M182.726 225.756H172.977V320.79H182.726V225.756Z" fill="#7D97F4"/>
<path d="M199.015 297.324H189.266V320.79H199.015V297.324Z" fill="#7D97F4"/>
<path d="M516.181 134.063C515.786 132.515 513.569 132.526 513.194 134.08C509.582 149.105 498.873 188.206 480.922 209.419C451.689 243.959 433.448 298.94 454.047 326.28C454.05 326.28 559.331 302.787 516.181 134.063Z" fill="#91B3FA"/>
<path d="M514.081 155.409C514.081 155.409 514.07 155.568 514.052 155.881C514.019 156.196 513.972 156.662 513.907 157.272C513.777 158.469 513.562 160.218 513.255 162.441C512.623 166.881 511.655 173.217 510.241 180.776C509.515 184.55 508.715 188.64 507.783 192.947C506.868 197.258 505.829 201.789 504.698 206.462C503.521 211.124 502.281 215.935 500.903 220.794C500.56 222.009 500.215 223.23 499.87 224.453C499.507 225.671 499.143 226.894 498.78 228.118C498.069 230.571 497.278 233.015 496.517 235.462C495.749 237.909 494.92 240.339 494.111 242.765C493.249 245.171 492.393 247.571 491.543 249.95C490.64 252.309 489.784 254.665 488.863 256.965C487.925 259.258 487.06 261.546 486.097 263.752C484.229 268.189 482.331 272.44 480.383 276.403C478.462 280.377 476.508 284.066 474.666 287.45C473.713 289.125 472.801 290.729 471.933 292.256C471.041 293.769 470.135 295.169 469.318 296.502C468.905 297.165 468.503 297.808 468.113 298.427C467.706 299.034 467.311 299.618 466.933 300.181C466.177 301.305 465.481 302.337 464.855 303.268C463.568 305.111 462.485 306.505 461.779 307.478C461.062 308.445 460.681 308.961 460.681 308.961C460.584 309.094 460.395 309.124 460.262 309.023C460.132 308.926 460.103 308.746 460.191 308.614L460.2 308.602C460.2 308.602 460.56 308.074 461.236 307.083C461.903 306.087 462.916 304.651 464.147 302.788C464.743 301.844 465.404 300.797 466.124 299.656C466.484 299.087 466.856 298.495 467.246 297.882C467.612 297.254 467.992 296.602 468.385 295.933C469.161 294.585 470.011 293.164 470.867 291.643C471.703 290.11 472.582 288.5 473.497 286.819C475.268 283.423 477.142 279.723 478.981 275.737C480.823 271.756 482.697 267.523 484.53 263.1C485.475 260.901 486.322 258.616 487.243 256.331C488.143 254.037 488.981 251.687 489.867 249.334C490.699 246.961 491.537 244.57 492.378 242.17C493.167 239.749 494.025 237.343 494.796 234.908C495.569 232.473 496.369 230.046 497.089 227.605C497.458 226.387 497.827 225.173 498.193 223.961C498.544 222.743 498.893 221.531 499.241 220.323C500.64 215.49 501.9 210.699 503.096 206.061C504.262 201.415 505.392 196.919 506.363 192.635C507.361 188.354 508.22 184.291 509.005 180.535C509.757 176.773 510.469 173.329 511.032 170.266C511.614 167.202 512.074 164.525 512.446 162.32C512.806 160.112 513.096 158.378 513.261 157.193C513.344 156.612 513.406 156.164 513.447 155.866C513.476 155.559 513.494 155.4 513.494 155.4L513.497 155.368C513.515 155.203 513.659 155.082 513.825 155.099C513.972 155.108 514.093 155.25 514.081 155.409Z" fill="#DCE5FE"/>
<path d="M226.795 88.6582H432.037C443.359 88.6582 452.698 97.5209 453.273 108.819L468.424 406.056C468.875 414.895 461.91 422.351 453.049 422.513L217.814 426.783C209.49 426.933 202.66 420.234 202.66 411.917V112.767C202.66 99.4521 213.466 88.6582 226.795 88.6582Z" fill="url(#paint4_linear_2748_6367)"/>
<path d="M252.196 421.729C252.193 421.729 252.19 421.729 252.187 421.729L225.865 421.39C217.063 421.275 209.902 414.031 209.902 405.239V365.543C209.902 365.233 210.153 364.982 210.463 364.982C210.773 364.982 211.024 365.233 211.024 365.543V405.239C211.024 413.421 217.686 420.161 225.876 420.267L252.199 420.606C252.508 420.609 252.756 420.865 252.753 421.175C252.753 421.481 252.503 421.729 252.196 421.729Z" fill="url(#paint5_linear_2748_6367)"/>
<path d="M210.467 353.806C210.157 353.806 209.906 353.555 209.906 353.245V346.818C209.906 346.508 210.157 346.258 210.467 346.258C210.777 346.258 211.028 346.508 211.028 346.818V353.245C211.028 353.555 210.777 353.806 210.467 353.806Z" fill="url(#paint6_linear_2748_6367)"/>
<path d="M227.428 86.2508C255.457 90.0482 351.838 101.789 431.522 95.6796C435.155 95.3995 438.31 98.1503 438.502 101.786L454.387 400.346C454.606 404.442 451.477 407.941 447.38 408.183C413.865 410.164 275.843 417.824 226.614 412.673C223.618 412.361 221.342 409.84 221.324 406.83L219.477 93.2324C219.45 88.975 223.202 85.6759 227.428 86.2508Z" fill="url(#paint7_linear_2748_6367)"/>
<path d="M230.431 93.9934C257.403 97.6464 350.153 108.947 426.838 103.068C430.336 102.8 433.37 105.448 433.556 108.944L448.842 396.263C449.052 400.202 446.041 403.572 442.098 403.805C409.846 405.713 277.019 413.08 229.643 408.124C226.759 407.824 224.572 405.397 224.554 402.502L222.777 100.716C222.754 96.6175 226.364 93.445 230.431 93.9934Z" fill="#BDD0FB"/>
<path d="M247.747 122.869L250.613 184.469C250.707 186.518 252.366 188.145 254.417 188.204C265.837 188.526 301.424 189.392 321.519 188.346C323.791 188.228 325.589 186.391 325.666 184.118C326.049 172.566 326.888 138.943 324.252 124.889C323.827 122.618 321.873 120.956 319.562 120.873L252.059 118.514C249.621 118.429 247.635 120.437 247.747 122.869Z" fill="url(#paint8_linear_2748_6367)"/>
<path d="M286.592 158.13C293.912 158.13 299.847 152.202 299.847 144.889C299.847 137.577 293.912 131.648 286.592 131.648C279.271 131.648 273.336 137.577 273.336 144.889C273.336 152.202 279.271 158.13 286.592 158.13Z" fill="url(#paint9_linear_2748_6367)"/>
<path d="M266.453 183.768H308.687C311.276 183.768 312.829 180.911 311.432 178.732C307.846 173.124 300.34 164.887 287.342 165.258C274.815 165.618 267.389 173.057 263.655 178.393C262.07 180.66 263.688 183.768 266.453 183.768Z" fill="url(#paint10_linear_2748_6367)"/>
<path d="M417.855 128.229C418.504 128.229 419.021 127.699 419 127.05L418.947 125.275C418.929 124.627 418.38 124.087 417.731 124.075L341.261 122.713C340.612 122.701 340.258 123.194 340.473 123.804L341.642 127.115C341.858 127.728 342.566 128.226 343.215 128.226H417.855V128.229Z" fill="url(#paint11_linear_2748_6367)"/>
<path d="M341.261 134.197C340.612 134.186 340.258 134.678 340.473 135.288L341.642 138.599C341.858 139.213 342.566 139.711 343.215 139.711H417.855C418.504 139.711 419.021 139.18 419 138.532L418.947 136.757C418.929 136.108 418.38 135.568 417.731 135.557L341.261 134.197Z" fill="url(#paint12_linear_2748_6367)"/>
<path d="M341.261 145.848C340.612 145.836 340.258 146.328 340.473 146.939L341.642 150.25C341.858 150.863 342.566 151.361 343.215 151.361H417.855C418.504 151.361 419.021 150.831 419 150.182L418.947 148.407C418.929 147.758 418.38 147.219 417.731 147.207L341.261 145.848Z" fill="url(#paint13_linear_2748_6367)"/>
<path d="M425.044 207.549C425.694 207.549 426.19 207.018 426.148 206.372L426.03 204.594C425.989 203.946 425.422 203.412 424.773 203.409L248.909 202.023C248.259 202.018 248.058 202.43 248.463 202.937L251.406 206.629C251.81 207.136 252.672 207.552 253.321 207.552H425.044V207.549Z" fill="url(#paint14_linear_2748_6367)"/>
<path d="M248.909 213.504C248.259 213.498 248.058 213.911 248.463 214.418L251.406 218.109C251.81 218.616 252.672 219.032 253.321 219.032H425.047C425.697 219.032 426.193 218.501 426.151 217.856L426.033 216.078C425.992 215.429 425.425 214.896 424.776 214.893L248.909 213.504Z" fill="url(#paint15_linear_2748_6367)"/>
<path d="M249.349 232.686C253.519 232.368 261.326 232.221 265.624 232.159C267.445 232.132 269.042 233.365 269.47 235.134C270.299 238.568 271.444 244.533 271.3 250.854C271.255 252.747 269.706 254.256 267.808 254.236L251.946 254.065C249.995 254.044 248.375 252.555 248.195 250.615L246.801 235.711C246.657 234.169 247.802 232.804 249.349 232.686Z" fill="url(#paint16_linear_2748_6367)"/>
<path d="M277.458 238.757C276.809 238.73 276.357 239.232 276.455 239.874L277.201 244.848C277.299 245.491 277.907 246.016 278.556 246.016H319.527C320.176 246.016 320.702 245.485 320.693 244.836L320.655 241.741C320.646 241.092 320.109 240.541 319.459 240.511L277.458 238.757Z" fill="url(#paint17_linear_2748_6367)"/>
<path d="M335.758 232.686C339.929 232.368 347.736 232.221 352.033 232.159C353.854 232.132 355.451 233.365 355.879 235.134C356.709 238.568 357.854 244.533 357.709 250.854C357.665 252.747 356.115 254.256 354.217 254.236L338.356 254.065C336.405 254.044 334.787 252.555 334.604 250.615L333.211 235.711C333.069 234.169 334.215 232.804 335.758 232.686Z" fill="url(#paint18_linear_2748_6367)"/>
<path d="M363.868 238.757C363.219 238.73 362.767 239.232 362.865 239.874L363.612 244.848C363.709 245.491 364.317 246.016 364.966 246.016H405.937C406.587 246.016 407.112 245.485 407.103 244.836L407.065 241.741C407.056 241.092 406.519 240.541 405.869 240.511L363.868 238.757Z" fill="url(#paint19_linear_2748_6367)"/>
<path d="M271.728 291.825C271.717 291.825 271.702 291.825 271.687 291.825L257.05 291.683C254.96 291.663 253.234 290.227 253.036 288.34L251.749 276.072C251.672 275.353 251.897 274.639 252.381 274.067C252.921 273.427 253.736 273.023 254.621 272.964C255.855 272.882 257.59 272.732 259.429 272.575C263.302 272.245 268.119 271.835 270.828 271.803C272.794 271.794 274.465 272.956 274.928 274.666C275.689 277.481 275.625 282.812 275.477 288.49C275.43 290.336 273.75 291.825 271.728 291.825ZM254.698 274.085C254.116 274.123 253.585 274.383 253.243 274.789C252.959 275.126 252.826 275.541 252.871 275.954L254.158 288.222C254.296 289.54 255.545 290.545 257.065 290.56L271.702 290.702C271.711 290.702 271.723 290.702 271.731 290.702C273.151 290.702 274.323 289.702 274.355 288.464C274.497 282.871 274.565 277.632 273.845 274.96C273.52 273.763 272.274 272.932 270.846 272.926C268.175 272.959 263.381 273.368 259.527 273.696C257.679 273.852 255.937 274.002 254.698 274.085Z" fill="white"/>
<path d="M256.27 275.352C259.346 275.142 266.028 274.464 269.198 274.426C270.541 274.408 271.719 275.219 272.035 276.384C272.646 278.642 272.566 283.147 272.46 287.301C272.427 288.546 271.282 289.539 269.886 289.527L258.189 289.415C256.752 289.401 255.556 288.422 255.423 287.145L254.396 277.342C254.287 276.328 255.131 275.428 256.27 275.352Z" fill="url(#paint20_linear_2748_6367)"/>
<path d="M284.582 283.678C285.008 285.282 286.466 286.397 288.127 286.382L423.546 285.229C425.078 285.217 426.303 283.955 426.27 282.425C426.238 280.936 425.025 279.748 423.534 279.739L288.11 279.123C285.725 279.111 283.974 281.37 284.582 283.678Z" fill="url(#paint21_linear_2748_6367)"/>
<path d="M256.894 277.274C257.98 276.637 259.379 277.018 259.993 278.117L262.88 283.286C263.169 283.805 263.925 283.769 264.167 283.23L271.327 267.306C271.684 266.513 272.868 266.781 272.856 267.651C272.782 272.522 271.489 281.779 263.697 289.531C263.697 289.531 259.403 287.865 255.946 280.279C255.448 279.185 255.855 277.885 256.894 277.274Z" fill="url(#paint22_linear_2748_6367)"/>
<path d="M271.728 323.157C271.717 323.157 271.702 323.157 271.687 323.157L257.05 323.015C254.96 322.995 253.234 321.559 253.036 319.672L251.749 307.404C251.672 306.685 251.897 305.971 252.381 305.399C252.921 304.759 253.736 304.355 254.621 304.296C255.855 304.214 257.59 304.063 259.429 303.907C263.302 303.577 268.119 303.167 270.828 303.135C270.849 303.135 270.867 303.135 270.887 303.135C272.812 303.135 274.467 304.305 274.928 305.998C275.689 308.813 275.625 314.144 275.477 319.822C275.43 321.671 273.75 323.157 271.728 323.157ZM254.698 305.42C254.116 305.458 253.585 305.718 253.243 306.124C252.959 306.46 252.826 306.876 252.871 307.289L254.158 319.557C254.296 320.875 255.545 321.88 257.065 321.895L271.702 322.037C271.711 322.037 271.723 322.037 271.731 322.037C273.151 322.037 274.323 321.037 274.355 319.799C274.497 314.206 274.565 308.967 273.845 306.295C273.52 305.098 272.257 304.24 270.846 304.261C268.175 304.293 263.381 304.703 259.527 305.031C257.679 305.187 255.937 305.334 254.698 305.42Z" fill="white"/>
<path d="M256.27 306.688C259.346 306.478 266.028 305.8 269.198 305.762C270.541 305.744 271.719 306.555 272.035 307.72C272.646 309.978 272.566 314.483 272.46 318.637C272.427 319.882 271.282 320.875 269.886 320.863L258.189 320.751C256.752 320.737 255.556 319.758 255.423 318.481L254.396 308.678C254.287 307.664 255.131 306.764 256.27 306.688Z" fill="url(#paint23_linear_2748_6367)"/>
<path d="M284.582 315.012C285.008 316.616 286.466 317.731 288.127 317.716L423.546 316.563C425.078 316.551 426.303 315.289 426.27 313.759C426.238 312.27 425.025 311.082 423.534 311.073L288.11 310.457C285.725 310.445 283.974 312.704 284.582 315.012Z" fill="url(#paint24_linear_2748_6367)"/>
<path d="M256.894 308.61C257.98 307.973 259.379 308.354 259.993 309.453L262.88 314.622C263.169 315.141 263.925 315.105 264.167 314.566L271.327 298.642C271.684 297.849 272.868 298.117 272.856 298.987C272.782 303.857 271.489 313.115 263.697 320.866C263.697 320.866 259.403 319.201 255.946 311.615C255.448 310.521 255.855 309.221 256.894 308.61Z" fill="url(#paint25_linear_2748_6367)"/>
<path d="M271.728 354.491C271.717 354.491 271.702 354.491 271.687 354.491L257.05 354.349C254.96 354.329 253.234 352.893 253.036 351.006L251.749 338.738C251.672 338.019 251.897 337.305 252.381 336.733C252.921 336.093 253.736 335.689 254.621 335.63C255.855 335.548 257.59 335.397 259.429 335.241C263.302 334.911 268.119 334.501 270.828 334.469C270.849 334.469 270.867 334.469 270.887 334.469C272.812 334.469 274.467 335.639 274.928 337.332C275.689 340.147 275.625 345.478 275.477 351.156C275.43 353.005 273.75 354.491 271.728 354.491ZM254.698 336.754C254.116 336.792 253.585 337.051 253.243 337.458C252.959 337.794 252.826 338.21 252.871 338.623L254.158 350.891C254.296 352.209 255.545 353.214 257.065 353.229L271.702 353.371C271.711 353.371 271.723 353.371 271.731 353.371C273.151 353.371 274.323 352.371 274.355 351.133C274.497 345.54 274.565 340.301 273.845 337.629C273.52 336.432 272.257 335.568 270.846 335.595C268.175 335.627 263.381 336.037 259.527 336.365C257.679 336.521 255.937 336.668 254.698 336.754Z" fill="white"/>
<path d="M256.27 338.02C259.346 337.81 266.028 337.132 269.198 337.094C270.541 337.076 271.719 337.887 272.035 339.052C272.646 341.31 272.566 345.815 272.46 349.969C272.427 351.214 271.282 352.207 269.886 352.195L258.189 352.083C256.752 352.069 255.556 351.09 255.423 349.813L254.396 340.01C254.287 338.996 255.131 338.099 256.27 338.02Z" fill="url(#paint26_linear_2748_6367)"/>
<path d="M284.582 346.348C285.008 347.952 286.466 349.067 288.127 349.052L423.546 347.899C425.078 347.887 426.303 346.625 426.27 345.095C426.238 343.609 425.025 342.418 423.534 342.409L288.11 341.793C285.725 341.781 283.974 344.04 284.582 346.348Z" fill="url(#paint27_linear_2748_6367)"/>
<path d="M256.894 339.944C257.98 339.307 259.379 339.688 259.993 340.787L262.88 345.956C263.169 346.475 263.925 346.439 264.167 345.9L271.327 329.976C271.684 329.183 272.868 329.451 272.856 330.321C272.782 335.191 271.489 344.449 263.697 352.2C263.697 352.2 259.403 350.535 255.946 342.949C255.448 341.852 255.855 340.555 256.894 339.944Z" fill="url(#paint28_linear_2748_6367)"/>
<path d="M271.728 385.827C271.717 385.827 271.702 385.827 271.687 385.827L257.05 385.685C254.96 385.665 253.234 384.229 253.036 382.342L251.749 370.074C251.672 369.354 251.897 368.641 252.381 368.069C252.921 367.429 253.736 367.025 254.621 366.966C255.855 366.884 257.59 366.733 259.429 366.577C263.302 366.247 268.119 365.837 270.828 365.805C270.849 365.805 270.867 365.805 270.887 365.805C272.812 365.805 274.467 366.975 274.928 368.668C275.689 371.483 275.625 376.814 275.477 382.492C275.43 384.341 273.75 385.827 271.728 385.827ZM254.698 368.09C254.116 368.128 253.585 368.387 253.243 368.794C252.959 369.13 252.826 369.546 252.871 369.959L254.158 382.227C254.296 383.545 255.545 384.55 257.065 384.565L271.702 384.706C271.711 384.706 271.723 384.706 271.731 384.706C273.151 384.706 274.323 383.707 274.355 382.469C274.497 376.876 274.565 371.637 273.845 368.965C273.52 367.768 272.257 366.901 270.846 366.931C268.175 366.963 263.381 367.373 259.527 367.7C257.679 367.857 255.937 368.004 254.698 368.09Z" fill="white"/>
<path d="M256.27 369.354C259.346 369.144 266.028 368.466 269.198 368.428C270.541 368.41 271.719 369.221 272.035 370.386C272.646 372.644 272.566 377.149 272.46 381.303C272.427 382.548 271.282 383.541 269.886 383.529L258.189 383.417C256.752 383.403 255.556 382.424 255.423 381.147L254.396 371.344C254.287 370.33 255.131 369.433 256.27 369.354Z" fill="url(#paint29_linear_2748_6367)"/>
<path d="M284.582 377.68C285.008 379.284 286.466 380.399 288.127 380.384L423.546 379.231C425.078 379.219 426.303 377.957 426.27 376.427C426.238 374.941 425.025 373.75 423.534 373.741L288.11 373.125C285.725 373.116 283.974 375.372 284.582 377.68Z" fill="url(#paint30_linear_2748_6367)"/>
<path d="M256.894 371.28C257.98 370.643 259.379 371.024 259.993 372.123L262.88 377.292C263.169 377.811 263.925 377.775 264.167 377.236L271.327 361.312C271.684 360.519 272.868 360.787 272.856 361.657C272.782 366.527 271.489 375.785 263.697 383.536C263.697 383.536 259.403 381.871 255.946 374.284C255.448 373.188 255.855 371.888 256.894 371.28Z" fill="url(#paint31_linear_2748_6367)"/>
<path d="M342.145 48.131C334.731 42.9803 328.284 43.0805 323.748 44.4191C319.61 45.6397 316.927 49.6318 317.319 53.9245L319.276 75.2617L342.564 77.3255C342.561 77.3255 356.685 58.235 342.145 48.131ZM331.903 65.3464C328.695 65.3464 326.097 62.7489 326.097 59.547C326.097 56.3422 328.698 53.7476 331.903 53.7476C335.111 53.7476 337.709 56.3451 337.709 59.547C337.712 62.7489 335.111 65.3464 331.903 65.3464Z" fill="url(#paint32_linear_2748_6367)"/>
<path d="M321.601 66.287C321.315 66.287 321.07 66.0688 321.043 65.777L320.731 62.3775C320.701 62.0679 320.931 61.7967 321.238 61.7672C321.554 61.7377 321.82 61.9677 321.849 62.2743L322.162 65.6738C322.192 65.9833 321.964 66.2546 321.654 66.2841C321.634 66.287 321.619 66.287 321.601 66.287ZM320.99 59.6267C320.704 59.6267 320.459 59.4085 320.432 59.1166L320.196 56.5368C319.821 52.4475 322.398 48.6383 326.321 47.4825C329.101 46.6629 331.964 46.5449 334.833 47.1346C335.137 47.1965 335.332 47.4943 335.27 47.798C335.208 48.1016 334.913 48.2962 334.606 48.2343C331.92 47.6859 329.24 47.795 326.64 48.5616C323.228 49.567 320.987 52.8809 321.315 56.4366L321.551 59.0164C321.581 59.326 321.353 59.5972 321.043 59.6267C321.023 59.6267 321.008 59.6267 320.99 59.6267Z" fill="url(#paint33_linear_2748_6367)"/>
<path d="M287.496 89.0516V78.3256C287.496 74.6225 290.569 71.6564 294.273 71.7832L368.316 74.3158C371.602 74.4279 374.264 77.0195 374.462 80.298L375.081 90.6054L287.496 89.0516Z" fill="url(#paint34_linear_2748_6367)"/>
<path d="M315.101 75.8215H311.916C311.606 75.8215 311.355 75.5709 311.355 75.2614C311.355 74.9518 311.606 74.7012 311.916 74.7012H315.101C315.411 74.7012 315.662 74.9518 315.662 75.2614C315.665 75.5709 315.414 75.8215 315.101 75.8215Z" fill="url(#paint35_linear_2748_6367)"/>
<path d="M291.498 85.6808C291.188 85.6808 290.938 85.4302 290.938 85.1206V80.7806C290.938 77.4284 293.668 74.7012 297.027 74.7012H308.733C309.043 74.7012 309.293 74.9518 309.293 75.2614C309.293 75.5709 309.043 75.8215 308.733 75.8215H297.027C294.291 75.8215 292.062 78.0446 292.062 80.7806V85.1206C292.062 85.4302 291.811 85.6808 291.498 85.6808Z" fill="url(#paint36_linear_2748_6367)"/>
<path d="M264.294 85.124L393.771 85.1211C398.425 85.1211 402.407 88.4675 403.201 93.0492L403.31 93.6801C404.181 98.6982 400.311 103.289 395.211 103.289H262.378C259.326 103.289 256.894 100.738 257.042 97.6958L257.328 91.7578C257.505 88.0458 260.572 85.124 264.294 85.124Z" fill="url(#paint37_linear_2748_6367)"/>
<path d="M516.097 376.352H511.203V429.212H516.097V376.352Z" fill="url(#paint38_linear_2748_6367)"/>
<path d="M535.079 430.232H492.219V428.327C492.219 427.623 492.791 427.051 493.497 427.051H533.7C534.462 427.051 535.079 427.667 535.079 428.428V430.232Z" fill="url(#paint39_linear_2748_6367)"/>
<path d="M541.438 374.517C541.438 377.41 539.071 379.774 536.175 379.774H492.813C489.918 379.774 487.551 377.41 487.551 374.517V369.765C487.551 366.872 489.918 364.508 492.813 364.508H536.175C539.071 364.508 541.438 366.872 541.438 369.765V374.517Z" fill="url(#paint40_linear_2748_6367)"/>
<path d="M477.529 341.107C477.529 341.107 470.256 342.234 462.083 347.691C460.797 348.549 460.091 350.047 460.286 351.583C461.266 359.328 465.289 384.398 478.562 408.884C479.262 410.175 479.462 411.679 479.155 413.115L476.85 423.835L472.573 427.839H483.589L490.923 408.014L487.789 407.023C485.357 406.257 483.689 404.022 483.645 401.475L483.276 380.208C483.589 370.732 477.461 364.196 477.461 364.196L495.053 363.341L477.529 341.107Z" fill="url(#paint41_linear_2748_6367)"/>
<path d="M468.267 429.772C467.264 431.084 479.064 432.814 485.026 429.946C485.026 429.946 493.291 415.584 493.291 408.19C493.291 408.19 492.635 406.683 487.783 407.025C487.783 407.025 485.009 424.031 482.078 425.936C479.147 427.84 473.881 426.127 473.881 426.127C473.881 426.127 469.746 427.837 468.267 429.772Z" fill="url(#paint42_linear_2748_6367)"/>
<path d="M492.819 364.507C492.725 364.345 473.879 362.242 473.879 362.242C473.879 362.242 474.496 367.965 472.568 375.846C470.641 383.724 442.973 417.863 442.973 417.863L445.874 427.05C436.904 430.172 428.079 430.67 419.398 428.642L437.379 417.863C437.379 417.863 454.206 360.583 464.513 350.364L483.404 343.836L492.819 364.507Z" fill="url(#paint43_linear_2748_6367)"/>
<path d="M535.08 331.18C535.08 331.18 545.939 347.31 546.827 354.669C547.718 362.028 543.852 365.018 532.462 365.51C521.069 366.003 490.655 365.997 490.655 365.997L464.699 343.837C464.699 343.837 483.616 337.094 488.533 335.186C493.454 333.282 535.08 331.18 535.08 331.18Z" fill="url(#paint44_linear_2748_6367)"/>
<path d="M444.777 423.955C444.777 423.955 447.899 426.977 445.789 430.338C445.789 430.338 421.046 434.719 414.328 432.732C414.328 432.732 415.724 429.551 423.286 425.933L422.728 426.361C422.023 426.903 422.436 428.03 423.325 427.98C428.313 427.697 438.629 426.785 444.777 423.955Z" fill="url(#paint45_linear_2748_6367)"/>
<path d="M512.377 236.391C514.018 236.901 519.93 239.021 519.169 242.821C519.068 243.325 519.544 243.753 520.039 243.617C522.587 242.933 528.215 242.069 531.707 246.436C534.789 250.292 532.486 253.931 530.609 255.929C530.155 256.413 530.538 257.194 531.193 257.112C535.878 256.522 546.058 256.381 547.722 265.904C549.275 274.787 543.085 277.29 539.414 277.998C538.794 278.119 538.646 278.932 539.18 279.271C541.01 280.433 543.133 282.83 542.277 287.562C540.934 294.98 526.374 294.373 524.673 294.276C524.567 294.27 524.464 294.237 524.369 294.184L501.049 280.899C500.866 280.796 500.742 280.616 500.707 280.41L495.999 253.249C495.96 253.028 496.028 252.804 496.185 252.645L507.864 235.878C505.205 234.43 512.126 236.311 512.377 236.391Z" fill="url(#paint46_linear_2748_6367)"/>
<path d="M504.959 324.876C504.959 324.876 492.314 312.85 486.092 304.884C482.728 300.579 481.671 294.909 483.226 289.673C486.069 280.112 491.119 270.205 491.579 268.663C492.285 266.302 506.461 266.399 506.461 266.399C506.461 266.399 534.36 284.484 545.319 315.12L533.008 318.947C533.008 318.947 525.723 306.741 518.527 298.978C518.527 298.978 530.98 315.412 531.42 322.14L504.959 324.876Z" fill="url(#paint47_linear_2748_6367)"/>
<path d="M489.863 255.464C490.011 255.956 493.712 268.21 494.001 268.463C494.291 268.717 502.115 269.138 505.799 266.623L498.768 250.652L489.863 255.464Z" fill="url(#paint48_linear_2748_6367)"/>
<path d="M488.702 228.544C488.702 228.544 482.994 233.01 481.137 243.504C479.28 253.997 483.723 257.408 487.994 256.883C492.265 256.358 498.389 254.601 503.262 246.826C508.135 239.052 496.208 223.048 488.702 228.544Z" fill="url(#paint49_linear_2748_6367)"/>
<path d="M497.541 243.043C497.541 243.043 498.707 228.11 486.579 231.223L484.274 233.98C484.274 233.98 477.789 227.632 484.088 222.057C490.387 216.481 499.711 217.148 505.469 226.102C511.228 235.056 513.536 241.469 509.658 247.551C505.779 253.633 502.211 248.895 502.211 248.895C502.211 248.895 503.825 243.753 502.048 241.716C500.269 239.682 498.403 243.226 498.403 243.226L497.541 243.043Z" fill="url(#paint50_linear_2748_6367)"/>
<path d="M497.836 247.052C497.836 247.052 498.391 239.372 502.429 241.276C506.466 243.181 501.522 248.476 499.518 250.301L497.836 247.052Z" fill="url(#paint51_linear_2748_6367)"/>
<path d="M479.199 325.77L488.488 316.824L501.339 322.246C501.339 322.246 514.131 324.225 521.451 322.246C528.771 320.268 528.771 320.268 528.771 320.268L545.315 315.123L547.912 322.459C548.573 324.322 547.909 326.389 546.298 327.533C544.866 328.55 543.19 329.664 542.118 330.133C539.94 331.085 488.411 329.476 488.411 329.476L479.199 325.77Z" fill="url(#paint52_linear_2748_6367)"/>
<path d="M94.3618 368.385C92.9568 370.46 87.3724 417.481 86.4987 434.846C86.4397 436.02 87.3813 436.999 88.556 436.999C89.5713 436.999 90.4361 436.259 90.5926 435.259L100.805 369.883L94.3618 368.385Z" fill="url(#paint53_linear_2748_6367)"/>
<path d="M139.252 368.385C140.657 370.46 146.241 417.481 147.115 434.846C147.174 436.02 146.232 436.999 145.058 436.999C144.042 436.999 143.178 436.259 143.021 435.259L132.809 369.883L139.252 368.385Z" fill="url(#paint54_linear_2748_6367)"/>
<path d="M85.9124 364.717L85.9065 365.23C85.874 368.919 89.0529 371.944 93.0375 372.012L140.245 372.813C144.171 372.881 147.444 370.045 147.633 366.416L147.657 365.947C147.854 362.158 144.634 358.968 140.54 358.894L93.312 358.048C89.2772 357.974 85.9478 360.973 85.9124 364.717Z" fill="url(#paint55_linear_2748_6367)"/>
<path d="M196.241 254.579L195.01 252.58C194.302 251.431 193.109 250.664 191.769 250.499L178.679 248.877C178.679 248.877 178.097 247.409 180.503 245.67C182.908 243.93 181.486 241.1 181.486 241.1C181.486 241.1 178.269 243.735 173.614 247.795C170.952 250.119 169.942 253.244 169.564 255.493L167.469 260.081C168.638 261.458 170.444 262.549 173.195 262.201L173.67 258.689C181.545 258.949 189.033 257.416 196.241 254.579Z" fill="url(#paint56_linear_2748_6367)"/>
<path d="M167.473 260.084L159.698 277.111C158.078 280.66 153.987 282.362 150.321 281.008L134.385 266.859L134.031 295.264L150.64 298.586C159.934 300.447 168.872 294.081 170.147 284.7L173.199 262.204C170.448 262.552 168.642 261.461 167.473 260.084Z" fill="url(#paint57_linear_2748_6367)"/>
<path d="M177.751 433.138C169.359 433.138 165.646 432.418 163.984 431.764C164.306 433.141 165.534 434.228 167.086 434.228H196.774C197.774 434.228 198.406 433.273 198.167 432.406C194.784 432.678 187.597 433.138 177.751 433.138Z" fill="url(#paint58_linear_2748_6367)"/>
<path d="M198.166 432.406C198.119 432.232 198.048 432.061 197.924 431.902C195.663 429.019 191.121 424.49 184.94 424.575C175.887 424.702 172.732 425.684 165.696 424.631L164.037 430.127C163.869 430.687 163.866 431.247 163.987 431.766C165.645 432.421 169.359 433.14 177.753 433.14C187.596 433.137 194.783 432.677 198.166 432.406Z" fill="url(#paint59_linear_2748_6367)"/>
<path d="M167.732 418.707L165.695 425.627C165.695 425.627 170.208 427.679 174.178 426.031L174.957 420.034L167.732 418.707Z" fill="url(#paint60_linear_2748_6367)"/>
<path d="M229.268 428.78C222.727 434.031 219.383 435.797 217.68 436.325C218.789 437.191 220.425 437.265 221.635 436.295L244.778 417.721C245.557 417.095 245.454 415.957 244.725 415.436C242.258 417.768 236.942 422.621 229.268 428.78Z" fill="url(#paint61_linear_2748_6367)"/>
<path d="M244.724 415.439C244.576 415.333 244.414 415.244 244.219 415.2C240.657 414.378 234.287 413.705 229.526 417.638C222.549 423.402 220.701 426.139 214.559 429.721L216.693 435.022C216.911 435.561 217.256 435.998 217.675 436.325C219.379 435.794 222.723 434.031 229.263 428.78C236.94 422.621 242.256 417.768 244.724 415.439Z" fill="url(#paint62_linear_2748_6367)"/>
<path d="M124.156 339.857C124.156 339.857 174.398 343.956 184.705 348.803C195.012 353.65 176.293 421.577 176.293 421.577C176.293 421.577 173.486 422.927 167.243 420.987C167.243 420.987 173.645 370.859 168.881 359.989L114.48 351.099L124.156 339.857Z" fill="url(#paint63_linear_2748_6367)"/>
<path d="M209.566 420.18C210.033 420.604 214.558 429.721 214.558 429.721C214.558 429.721 219.596 428.633 220.623 425.446L216.089 417.217L209.566 420.18Z" fill="url(#paint64_linear_2748_6367)"/>
<path d="M93.8965 339.436C93.8965 339.436 92.2584 343.372 92.3263 348.599C92.4178 355.831 98.2383 361.701 105.473 362.061L164.867 364.768C166.122 364.824 167.181 365.693 167.497 366.905C168.893 372.298 175.714 388.859 209.061 421.904C209.95 422.782 211.331 422.933 212.388 422.266L217.134 419.271C217.633 418.955 217.792 418.304 217.494 417.797L182.91 358.806C181.095 355.811 178.173 353.649 174.779 352.783L124.156 339.857L93.8965 339.436Z" fill="url(#paint65_linear_2748_6367)"/>
<path d="M93.735 339.263C93.735 339.263 93.1477 309.856 99.0302 282.183C101.203 271.964 106.858 262.815 115.075 256.35L117.823 254.186L131.589 259.773L140.524 273.323C144.417 281.104 144.96 290.132 142.023 298.322C137.112 312.014 129.824 332.726 128.151 339.696C128.148 339.693 105.35 342.701 93.735 339.263Z" fill="url(#paint66_linear_2748_6367)"/>
<path d="M127.288 232.273L116.535 257.196C116.535 257.196 119.977 264.929 132.019 261.922L136.32 244.736L127.288 232.273Z" fill="url(#paint67_linear_2748_6367)"/>
<path d="M162.988 316.062C162.988 315.631 176.754 269.655 176.754 269.655L191.811 267.078L173.744 317.35L162.988 316.062Z" fill="url(#paint68_linear_2748_6367)"/>
<path d="M162.129 317.351C162.988 318.209 171.592 318.209 171.592 318.209L189.658 265.787L175.464 268.794L162.129 317.351Z" fill="url(#paint69_linear_2748_6367)"/>
<path d="M148.598 220.906C148.727 221.254 149.011 245.808 149.011 245.808L134.973 245.672L131.242 222.442C131.242 222.439 146.428 215.08 148.598 220.906Z" fill="url(#paint70_linear_2748_6367)"/>
<path d="M135.359 226.91L136.366 239.293C136.378 239.452 136.413 239.605 136.466 239.753C136.806 240.667 138.205 243.727 141.251 242.108C144.016 240.64 146.561 239.34 148.55 239.505C149.444 239.579 150.132 240.319 150.141 241.212C150.167 243.444 150.129 248.471 149.432 252.834C149.291 253.719 148.488 254.341 147.594 254.279C144.896 254.087 139.217 253.527 134.754 252.006C134.149 251.799 133.706 251.286 133.597 250.658C133.069 247.592 131.425 238.278 130.566 235.752C129.76 233.381 126.457 232.57 125.046 232.329C124.583 232.249 124.179 231.987 123.916 231.597C122.989 230.223 121.407 226.921 125.489 224.548C126.342 224.05 126.614 222.956 126.091 222.118C125.049 220.45 124.179 217.749 127.245 215.497C130.362 213.206 133.34 214.488 135.055 215.679C135.749 216.163 136.673 216.06 137.275 215.467C137.617 215.131 138.113 214.936 138.816 215.19C139.763 215.529 140.79 214.936 141.029 213.96C141.49 212.088 142.782 209.906 146.286 209.756C152.505 209.488 154.621 215.98 153.88 220.211C153.14 224.442 146.38 224.35 142.726 223.088C139.949 222.127 137.101 224.38 135.893 225.512C135.51 225.872 135.318 226.385 135.359 226.91Z" fill="url(#paint71_linear_2748_6367)"/>
<path d="M130.973 240.257C130.973 240.257 131.947 232.828 129.048 231.687C126.15 230.546 122.587 232.232 124.494 237.05C126.867 243.044 130.973 240.257 130.973 240.257Z" fill="url(#paint72_linear_2748_6367)"/>
<path d="M167.931 302.771C137.37 323.884 124.383 275.723 124.061 275.454C104.274 259.127 105.218 288.766 107.715 292.213C132.996 331.576 162.346 320.142 171.411 308.06C169.253 306.25 168.303 304.36 167.931 302.771Z" fill="url(#paint73_linear_2748_6367)"/>
<path d="M139.698 303.475C139.494 303.475 139.287 303.404 139.116 303.263C131.504 296.868 126.61 286.219 123.845 278.414C123.679 277.945 123.924 277.43 124.394 277.264C124.863 277.099 125.379 277.344 125.545 277.813C127.749 284.031 132.593 295.426 140.276 301.886C140.657 302.207 140.707 302.773 140.385 303.157C140.208 303.366 139.954 303.475 139.698 303.475Z" fill="url(#paint74_linear_2748_6367)"/>
<path d="M133.601 317.223C133.485 317.223 133.367 317.2 133.252 317.153C123.503 313.075 114.51 304.702 106.526 292.272C106.257 291.853 106.378 291.296 106.797 291.027C107.216 290.759 107.774 290.88 108.043 291.299C115.826 303.416 124.542 311.557 133.949 315.493C134.409 315.684 134.625 316.212 134.433 316.672C134.288 317.014 133.952 317.223 133.601 317.223Z" fill="url(#paint75_linear_2748_6367)"/>
<path d="M184.775 286.654C184.775 286.654 184.498 287.701 181.487 292C178.477 296.295 175.035 299.306 176.756 294.149C178.477 288.992 176.325 287.273 174.28 292.887C172.231 298.501 170.304 301.022 170.304 301.022C169.501 301.652 168.713 302.233 167.934 302.77C168.303 304.359 169.256 306.246 171.414 308.059C172.644 307.181 173.314 306.606 173.314 306.606C173.314 306.606 183.208 301.449 184.067 296.292C184.926 291.139 184.775 286.654 184.775 286.654Z" fill="url(#paint76_linear_2748_6367)"/>
<path d="M184.182 331.537C183.958 332.46 162.68 412.174 157.288 432.385C156.665 434.714 158.403 437.002 160.788 437.002C162.453 437.002 163.902 435.858 164.306 434.225L187.928 338.563L184.182 331.537Z" fill="#7D97F4"/>
<path d="M195.835 331.305C196.06 332.228 217.338 412.122 222.73 432.374C223.353 434.709 221.615 437 219.23 437C217.565 437 216.116 435.853 215.711 434.217L192.09 338.342L195.835 331.305Z" fill="#7D97F4"/>
<path d="M196.721 328.932H183.469V339.563C183.469 341.091 184.694 342.329 186.205 342.329H188.023V366.207C188.023 367.363 188.95 368.301 190.095 368.301C191.24 368.301 192.167 367.363 192.167 366.207V342.329H193.091C195.098 342.329 196.721 340.684 196.721 338.658V328.932Z" fill="#7D97F4"/>
<path d="M476.229 331.537C476.008 332.46 454.727 412.174 449.334 432.385C448.712 434.714 450.45 437.002 452.835 437.002C454.5 437.002 455.949 435.858 456.353 434.225L479.975 338.563L476.229 331.537Z" fill="#7D97F4"/>
<path d="M487.882 331.537C488.107 332.46 509.385 412.174 514.777 432.385C515.4 434.714 513.661 437.002 511.277 437.002C509.612 437.002 508.163 435.858 507.758 434.225L484.137 338.563L487.882 331.537Z" fill="#7D97F4"/>
<path d="M488.768 328.932H475.516V339.563C475.516 341.091 476.741 342.329 478.252 342.329H480.07V366.207C480.07 367.363 480.997 368.301 482.142 368.301C483.287 368.301 484.214 367.363 484.214 366.207V342.329H485.138C487.145 342.329 488.768 340.684 488.768 338.658V328.932Z" fill="#7D97F4"/>
<path d="M149.91 326.375H522.02C523.053 326.375 523.956 327.083 524.216 328.094L525.249 332.142C525.621 333.598 524.529 335.017 523.041 335.008L148.998 334.565C147.526 334.557 146.454 333.156 146.811 331.711L147.709 328.106C147.965 327.091 148.872 326.375 149.91 326.375Z" fill="url(#paint77_linear_2748_6367)"/>
<path d="M105.043 259.7L103.927 258.285C103.614 257.89 103.682 257.318 104.078 257.005C104.473 256.693 105.046 256.76 105.359 257.155C105.359 257.155 105.365 257.161 105.365 257.164L106.466 258.591C106.77 258.986 106.696 259.552 106.3 259.856C105.911 260.157 105.35 260.086 105.043 259.7Z" fill="#7D97F4"/>
<path d="M101.425 254.803L100.439 253.293C100.153 252.857 100.277 252.27 100.714 251.984C101.151 251.698 101.738 251.822 102.024 252.258C102.024 252.261 102.03 252.267 102.03 252.267L102.998 253.786C103.276 254.222 103.149 254.8 102.712 255.077C102.278 255.357 101.706 255.23 101.425 254.803Z" fill="#7D97F4"/>
<path d="M98.2513 249.608L97.3983 248.019C97.1415 247.541 97.3215 246.949 97.7997 246.695C98.2778 246.438 98.8711 246.618 99.1249 247.096C99.1249 247.099 99.1279 247.105 99.1308 247.105L99.9632 248.703C100.211 249.178 100.025 249.761 99.5529 250.009C99.0836 250.254 98.5021 250.074 98.2513 249.608Z" fill="#7D97F4"/>
<path d="M95.5357 244.16L94.8214 242.506C94.6 241.993 94.8361 241.398 95.3497 241.177C95.8633 240.956 96.4595 241.191 96.6809 241.704C96.6809 241.707 96.6838 241.713 96.6868 241.716L97.3833 243.379C97.5959 243.889 97.3568 244.476 96.8462 244.691C96.3355 244.898 95.7541 244.662 95.5357 244.16Z" fill="#7D97F4"/>
<path d="M93.2826 238.502L92.7041 236.794C92.5182 236.246 92.8133 235.653 93.3594 235.468C93.9084 235.282 94.5016 235.577 94.6876 236.122C94.6876 236.125 94.6905 236.131 94.6905 236.134L95.2484 237.847C95.4255 238.392 95.1274 238.976 94.5843 239.153C94.0442 239.333 93.4627 239.038 93.2826 238.502Z" fill="#7D97F4"/>
<path d="M91.4881 232.685L91.0454 230.939C90.8978 230.362 91.2491 229.775 91.8276 229.627C92.4061 229.48 92.9935 229.831 93.141 230.409C93.141 230.412 93.144 230.418 93.144 230.421L93.5661 232.172C93.7048 232.747 93.3506 233.325 92.775 233.463C92.2083 233.602 91.6328 233.254 91.4881 232.685Z" fill="#7D97F4"/>
<path d="M90.151 226.75L89.8411 224.975C89.7348 224.368 90.1421 223.793 90.7472 223.687C91.3552 223.581 91.9308 223.987 92.0371 224.592C92.0371 224.595 92.04 224.601 92.04 224.604L92.3293 226.382C92.4267 226.983 92.0193 227.549 91.4172 227.649C90.821 227.747 90.2543 227.343 90.151 226.75Z" fill="#7D97F4"/>
<path d="M89.2599 220.729L89.0798 218.936C89.0179 218.305 89.4754 217.742 90.107 217.68C90.7386 217.615 91.3024 218.075 91.3644 218.706C91.3644 218.709 91.3644 218.718 91.3644 218.718L91.5238 220.513C91.5798 221.138 91.1164 221.693 90.4907 221.749C89.8709 221.802 89.3219 221.348 89.2599 220.729Z" fill="#7D97F4"/>
<path d="M88.8037 214.659L88.7506 212.858C88.7299 212.206 89.2435 211.661 89.8988 211.643C90.5511 211.623 91.0971 212.136 91.1148 212.79C91.1148 212.793 91.1148 212.802 91.1148 212.805L91.1473 214.606C91.1591 215.252 90.6426 215.786 89.9962 215.797C89.3527 215.809 88.8214 215.299 88.8037 214.659Z" fill="#7D97F4"/>
<path d="M88.7705 208.573L88.8414 206.772C88.8679 206.103 89.4346 205.578 90.1046 205.604C90.7746 205.631 91.3 206.197 91.2735 206.866C91.2735 206.869 91.2735 206.878 91.2735 206.881L91.182 208.68C91.1495 209.343 90.5828 209.856 89.9157 209.824C89.2546 209.791 88.744 209.231 88.7705 208.573Z" fill="#7D97F4"/>
<path d="M89.1598 202.497L89.3516 200.708C89.4254 200.021 90.0423 199.525 90.7271 199.599C91.4148 199.673 91.9107 200.289 91.8369 200.973C91.8369 200.976 91.8369 200.985 91.8339 200.988L91.6214 202.774C91.5417 203.453 90.9248 203.939 90.243 203.859C89.57 203.78 89.086 203.172 89.1598 202.497Z" fill="#7D97F4"/>
<path d="M89.9484 196.461L90.2613 194.686C90.3853 193.987 91.0494 193.521 91.7489 193.645C92.4484 193.769 92.9148 194.432 92.7908 195.131L92.7879 195.146L92.4573 196.918C92.3274 197.608 91.6633 198.064 90.9697 197.935C90.282 197.802 89.8304 197.145 89.9484 196.461Z" fill="#7D97F4"/>
<path d="M91.1555 190.488L91.5893 188.739C91.7635 188.043 92.4689 187.619 93.1655 187.79C93.8621 187.964 94.2871 188.668 94.1159 189.364L94.113 189.373L93.6673 191.118C93.4902 191.811 92.7847 192.23 92.0911 192.053C91.4034 191.879 90.9843 191.177 91.1555 190.488Z" fill="#7D97F4"/>
<path d="M92.7664 184.612L93.3154 182.897C93.5368 182.204 94.2806 181.82 94.9742 182.044C95.6679 182.266 96.0516 183.009 95.8272 183.701L95.8243 183.71L95.2635 185.423C95.0392 186.113 94.2954 186.488 93.6076 186.264C92.9229 186.037 92.5451 185.299 92.7664 184.612Z" fill="#7D97F4"/>
<path d="M94.7617 178.853L95.4258 177.179C95.6974 176.495 96.4737 176.159 97.1614 176.43C97.8461 176.701 98.1826 177.477 97.9111 178.164L97.9081 178.169L97.2322 179.841C96.9577 180.522 96.1814 180.852 95.4996 180.578C94.8208 180.304 94.4931 179.532 94.7617 178.853Z" fill="#7D97F4"/>
<path d="M97.149 173.242L97.9282 171.615C98.2499 170.94 99.0587 170.657 99.7346 170.978C100.41 171.3 100.694 172.107 100.372 172.783L100.369 172.788L99.5781 174.41C99.2535 175.079 98.4447 175.359 97.7747 175.032C97.1077 174.711 96.8273 173.909 97.149 173.242Z" fill="#7D97F4"/>
<path d="M99.9254 167.804L100.817 166.236C101.192 165.578 102.03 165.348 102.688 165.723C103.346 166.097 103.577 166.934 103.202 167.592L103.199 167.598L102.299 169.16C101.921 169.815 101.085 170.039 100.433 169.662C99.7779 169.287 99.5535 168.459 99.9254 167.804Z" fill="#7D97F4"/>
<path d="M103.081 162.576L104.085 161.079C104.513 160.442 105.375 160.271 106.012 160.698C106.65 161.126 106.821 161.987 106.393 162.624L106.387 162.63L105.375 164.121C104.947 164.752 104.085 164.917 103.453 164.49C102.824 164.062 102.659 163.207 103.081 162.576Z" fill="#7D97F4"/>
<path d="M106.607 157.59L107.711 156.166C108.186 155.552 109.072 155.44 109.686 155.915C110.3 156.39 110.412 157.274 109.936 157.887L109.931 157.893L108.818 159.312C108.34 159.919 107.46 160.028 106.849 159.55C106.241 159.076 106.135 158.2 106.607 157.59Z" fill="#7D97F4"/>
<path d="M110.454 152.859L111.649 151.509C112.172 150.919 113.072 150.863 113.659 151.385C114.25 151.907 114.306 152.806 113.783 153.393L113.777 153.399L112.576 154.74C112.054 155.324 111.156 155.374 110.572 154.852C109.988 154.336 109.937 153.443 110.454 152.859Z" fill="#7D97F4"/>
<path d="M114.594 148.385L115.872 147.114C116.435 146.551 117.35 146.554 117.911 147.117C118.475 147.68 118.472 148.594 117.908 149.154L117.902 149.16L116.618 150.425C116.052 150.982 115.143 150.974 114.585 150.41C114.03 149.844 114.036 148.939 114.594 148.385Z" fill="#7D97F4"/>
<path d="M119.009 144.179L120.361 142.988C120.966 142.454 121.89 142.513 122.422 143.118C122.956 143.722 122.897 144.645 122.292 145.176L122.286 145.181L120.925 146.364C120.32 146.891 119.399 146.827 118.874 146.222C118.348 145.621 118.407 144.707 119.009 144.179Z" fill="#7D97F4"/>
<path d="M123.668 140.249L125.091 139.14C125.734 138.639 126.664 138.754 127.166 139.397C127.668 140.039 127.552 140.968 126.909 141.469L126.903 141.475L125.475 142.575C124.831 143.07 123.904 142.952 123.408 142.31C122.913 141.664 123.031 140.747 123.668 140.249Z" fill="#7D97F4"/>
<path d="M128.548 136.601L130.033 135.578C130.712 135.109 131.645 135.277 132.114 135.958C132.583 136.636 132.415 137.568 131.733 138.037L131.727 138.043L130.237 139.06C129.558 139.523 128.631 139.349 128.165 138.671C127.704 137.987 127.875 137.067 128.548 136.601Z" fill="#7D97F4"/>
<path d="M133.631 133.238L135.169 132.297C135.883 131.861 136.813 132.085 137.25 132.798C137.687 133.512 137.462 134.44 136.748 134.877L136.739 134.883L135.195 135.814C134.481 136.245 133.554 136.015 133.126 135.304C132.698 134.594 132.926 133.671 133.631 133.238Z" fill="#7D97F4"/>
<path d="M138.891 130.163L140.479 129.311C141.222 128.913 142.149 129.19 142.548 129.933C142.946 130.676 142.669 131.602 141.925 132L141.922 132.002L140.331 132.852C139.587 133.247 138.663 132.967 138.268 132.227C137.869 131.484 138.147 130.561 138.891 130.163Z" fill="#7D97F4"/>
<path d="M144.314 127.389L145.946 126.622C146.711 126.262 147.623 126.593 147.983 127.356C148.343 128.12 148.013 129.031 147.248 129.391H147.245L145.613 130.154C144.848 130.511 143.936 130.184 143.579 129.42C143.219 128.656 143.55 127.748 144.314 127.389Z" fill="#7D97F4"/>
<path d="M149.873 124.899L151.543 124.218C152.328 123.897 153.223 124.274 153.545 125.058C153.866 125.843 153.488 126.736 152.703 127.057H152.7L151.03 127.736C150.245 128.054 149.35 127.677 149.032 126.895C148.713 126.114 149.088 125.221 149.873 124.899Z" fill="#7D97F4"/>
<path d="M155.548 122.7L157.248 122.104C158.051 121.824 158.927 122.246 159.211 123.045C159.491 123.847 159.069 124.722 158.269 125.005H158.266L156.566 125.601C155.763 125.881 154.887 125.459 154.606 124.657C154.326 123.856 154.748 122.98 155.548 122.7Z" fill="#7D97F4"/>
<path d="M161.326 120.786L163.055 120.273C163.873 120.031 164.732 120.497 164.974 121.311C165.216 122.127 164.75 122.985 163.935 123.227H163.932L162.202 123.737C161.385 123.979 160.529 123.513 160.287 122.696C160.045 121.883 160.508 121.028 161.326 120.786Z" fill="#7D97F4"/>
<path d="M167.19 119.16L168.943 118.732C169.772 118.529 170.611 119.039 170.811 119.867C171.015 120.696 170.507 121.533 169.675 121.734H169.672L167.916 122.158C167.087 122.359 166.251 121.852 166.051 121.023C165.853 120.195 166.36 119.36 167.19 119.16Z" fill="#7D97F4"/>
<path d="M173.127 117.818L174.898 117.476C175.739 117.314 176.55 117.862 176.713 118.702C176.875 119.542 176.326 120.353 175.485 120.515H175.482L173.711 120.857C172.87 121.02 172.058 120.471 171.899 119.631C171.739 118.788 172.285 117.977 173.127 117.818Z" fill="#7D97F4"/>
<path d="M179.121 116.759L180.907 116.503C181.757 116.379 182.545 116.969 182.666 117.818C182.79 118.667 182.2 119.454 181.35 119.575H181.347L179.561 119.831C178.711 119.952 177.926 119.366 177.805 118.516C177.684 117.667 178.271 116.883 179.121 116.759Z" fill="#7D97F4"/>
<path d="M185.159 115.993L186.953 115.822C187.809 115.739 188.571 116.367 188.654 117.222C188.736 118.077 188.107 118.838 187.252 118.92H187.249L185.454 119.091C184.598 119.171 183.839 118.546 183.757 117.691C183.677 116.83 184.303 116.072 185.159 115.993Z" fill="#7D97F4"/>
<path d="M191.228 115.511L193.032 115.426C193.894 115.384 194.626 116.048 194.664 116.909C194.705 117.77 194.041 118.501 193.179 118.539H193.176L191.373 118.622C190.511 118.663 189.782 117.997 189.744 117.139C189.705 116.281 190.367 115.552 191.228 115.511Z" fill="#7D97F4"/>
<path d="M197.309 115.326L199.125 115.329C199.99 115.329 200.689 116.031 200.689 116.895C200.689 117.759 199.987 118.457 199.122 118.457H199.119H199.104L197.312 118.454H197.304C196.439 118.451 195.742 117.753 195.742 116.889C195.745 116.022 196.448 115.326 197.309 115.326Z" fill="#7D97F4"/>
<path d="M203.394 115.43L205.194 115.512C206.059 115.55 206.729 116.285 206.691 117.148C206.652 118.012 205.917 118.682 205.052 118.643H205.049L203.249 118.561C202.384 118.519 201.717 117.788 201.755 116.924C201.8 116.058 202.529 115.388 203.394 115.43Z" fill="#7D97F4"/>
<path d="M209.463 115.796L211.261 115.955C212.126 116.032 212.766 116.792 212.689 117.656C212.613 118.52 211.851 119.16 210.986 119.083H210.983L209.186 118.924C208.321 118.847 207.683 118.084 207.76 117.22C207.837 116.356 208.598 115.716 209.463 115.796Z" fill="#7D97F4"/>
<path d="M215.506 116.416L217.294 116.649C218.156 116.761 218.767 117.551 218.652 118.415C218.54 119.276 217.749 119.887 216.887 119.772H216.884L215.095 119.536C214.233 119.424 213.625 118.633 213.741 117.77C213.856 116.909 214.644 116.301 215.506 116.416Z" fill="#7D97F4"/>
<path d="M221.519 117.287L223.296 117.59C224.155 117.738 224.733 118.555 224.586 119.412C224.438 120.27 223.621 120.848 222.762 120.701H222.759L220.982 120.394C220.123 120.247 219.547 119.43 219.695 118.572C219.845 117.714 220.66 117.139 221.519 117.287Z" fill="#7D97F4"/>
<path d="M227.491 118.396L229.256 118.77C230.112 118.953 230.658 119.79 230.475 120.645C230.292 121.5 229.454 122.046 228.598 121.863H228.595L226.83 121.486C225.974 121.303 225.431 120.463 225.614 119.61C225.8 118.758 226.638 118.216 227.491 118.396Z" fill="#7D97F4"/>
<path d="M233.415 119.734L235.165 120.174C236.015 120.389 236.532 121.25 236.316 122.099C236.101 122.948 235.239 123.464 234.389 123.249H234.386L232.639 122.807C231.789 122.591 231.275 121.73 231.491 120.881C231.703 120.035 232.565 119.519 233.415 119.734Z" fill="#7D97F4"/>
<path d="M239.279 121.293L241.011 121.798C241.855 122.042 242.339 122.924 242.094 123.767C241.849 124.61 240.967 125.094 240.123 124.849H240.12L238.39 124.342C237.546 124.094 237.065 123.213 237.31 122.372C237.555 121.529 238.437 121.046 239.279 121.293Z" fill="#7D97F4"/>
<path d="M245.083 123.059L246.795 123.622C247.63 123.896 248.084 124.798 247.81 125.633C247.535 126.467 246.632 126.921 245.797 126.647H245.794L244.082 126.081C243.247 125.804 242.792 124.904 243.07 124.07C243.347 123.236 244.244 122.785 245.083 123.059Z" fill="#7D97F4"/>
<path d="M250.82 125.029L252.511 125.654C253.337 125.961 253.759 126.874 253.452 127.7C253.145 128.526 252.233 128.947 251.407 128.643L249.713 128.021C248.883 127.718 248.458 126.801 248.762 125.975C249.066 125.147 249.984 124.722 250.811 125.026L250.82 125.029Z" fill="#7D97F4"/>
<path d="M256.485 127.199L258.153 127.88C258.964 128.21 259.354 129.136 259.021 129.944C258.69 130.755 257.769 131.144 256.957 130.814L255.287 130.138C254.472 129.811 254.08 128.885 254.41 128.072C254.741 127.258 255.665 126.869 256.479 127.196L256.485 127.199Z" fill="#7D97F4"/>
<path d="M262.066 129.546L263.713 130.28C264.51 130.634 264.867 131.565 264.513 132.361C264.159 133.158 263.229 133.514 262.435 133.16L260.785 132.432C259.988 132.081 259.625 131.147 259.98 130.351C260.331 129.555 261.266 129.192 262.063 129.546H262.066Z" fill="#7D97F4"/>
<path d="M267.574 132.07L269.201 132.855C269.98 133.232 270.308 134.167 269.933 134.948C269.558 135.729 268.622 136.057 267.843 135.679L266.217 134.901C265.434 134.526 265.104 133.589 265.479 132.807C265.854 132.026 266.792 131.696 267.574 132.07Z" fill="#7D97F4"/>
<path d="M273.003 134.756L274.606 135.587C275.37 135.985 275.669 136.926 275.27 137.69C274.872 138.453 273.936 138.754 273.171 138.356L271.566 137.53C270.798 137.135 270.497 136.195 270.893 135.428C271.288 134.662 272.23 134.361 272.997 134.756H273.003Z" fill="#7D97F4"/>
<path d="M278.351 137.6L279.93 138.479C280.68 138.895 280.948 139.838 280.532 140.587C280.116 141.336 279.174 141.604 278.427 141.189L276.845 140.316C276.096 139.9 275.821 138.957 276.237 138.208C276.654 137.459 277.598 137.185 278.348 137.6H278.351Z" fill="#7D97F4"/>
<path d="M283.615 140.597L285.168 141.517C285.9 141.95 286.142 142.897 285.708 143.628C285.274 144.359 284.329 144.604 283.597 144.168L282.042 143.251C281.307 142.817 281.062 141.871 281.496 141.137C281.93 140.403 282.877 140.158 283.612 140.591L283.615 140.597Z" fill="#7D97F4"/>
<path d="M288.794 143.733L290.322 144.694C291.04 145.145 291.252 146.091 290.801 146.808C290.349 147.524 289.405 147.739 288.69 147.288L287.158 146.33C286.438 145.879 286.223 144.933 286.671 144.216C287.123 143.497 288.07 143.282 288.788 143.73L288.794 143.733Z" fill="#7D97F4"/>
<path d="M293.885 147.006L295.384 148.008C296.084 148.474 296.273 149.42 295.803 150.119C295.334 150.818 294.392 151.009 293.693 150.541L292.191 149.544C291.488 149.078 291.296 148.132 291.763 147.43C292.229 146.728 293.176 146.537 293.879 147.003L293.885 147.006Z" fill="#7D97F4"/>
<path d="M298.887 150.411L300.36 151.449C301.044 151.929 301.207 152.876 300.726 153.56C300.244 154.244 299.3 154.409 298.615 153.928L297.139 152.893C296.452 152.413 296.286 151.466 296.768 150.779C297.249 150.092 298.196 149.927 298.884 150.408L298.887 150.411Z" fill="#7D97F4"/>
<path d="M303.795 153.926L305.245 154.993C305.915 155.486 306.056 156.429 305.563 157.098C305.071 157.768 304.129 157.912 303.459 157.42L302.004 156.355C301.331 155.863 301.186 154.92 301.679 154.247C302.172 153.575 303.117 153.431 303.79 153.923L303.795 153.926Z" fill="#7D97F4"/>
<path d="M308.633 157.538L310.064 158.632C310.723 159.133 310.847 160.073 310.345 160.731C309.843 161.388 308.904 161.515 308.246 161.014L306.812 159.923C306.151 159.422 306.024 158.481 306.525 157.821C307.027 157.16 307.969 157.034 308.63 157.535L308.633 157.538Z" fill="#7D97F4"/>
<path d="M313.398 161.222L314.815 162.336C315.461 162.844 315.573 163.781 315.063 164.427C314.552 165.073 313.619 165.188 312.973 164.677L311.553 163.566C310.904 163.059 310.789 162.121 311.299 161.473C311.807 160.824 312.746 160.709 313.395 161.219L313.398 161.222Z" fill="#7D97F4"/>
<path d="M318.117 164.965L319.522 166.094C320.16 166.607 320.26 167.538 319.746 168.172C319.233 168.809 318.306 168.912 317.668 168.399L316.261 167.273C315.62 166.763 315.517 165.828 316.027 165.192C316.538 164.552 317.474 164.449 318.114 164.959L318.117 164.965Z" fill="#7D97F4"/>
<path d="M322.797 168.75L324.193 169.888C324.822 170.401 324.917 171.327 324.403 171.958C323.889 172.586 322.966 172.683 322.334 172.17L320.932 171.035C320.3 170.522 320.203 169.593 320.716 168.963C321.23 168.332 322.16 168.234 322.791 168.747L322.797 168.75Z" fill="#7D97F4"/>
<path d="M327.456 172.557L328.849 173.701C329.475 174.214 329.564 175.134 329.05 175.759C328.536 176.384 327.618 176.475 326.993 175.962L325.597 174.821C324.971 174.308 324.876 173.389 325.39 172.761C325.904 172.136 326.824 172.041 327.453 172.551L327.456 172.557Z" fill="#7D97F4"/>
<path d="M332.098 176.371L333.492 177.515C334.111 178.025 334.203 178.939 333.692 179.561C333.182 180.18 332.27 180.274 331.647 179.764L330.251 178.623C329.628 178.116 329.533 177.199 330.044 176.574C330.552 175.952 331.47 175.858 332.095 176.368L332.098 176.371Z" fill="#7D97F4"/>
<path d="M336.747 180.175L338.146 181.313C338.766 181.817 338.858 182.725 338.353 183.345C337.848 183.964 336.942 184.058 336.322 183.554L334.92 182.419C334.297 181.915 334.203 181.004 334.705 180.384C335.209 179.762 336.122 179.668 336.741 180.169L336.747 180.175Z" fill="#7D97F4"/>
<path d="M341.41 183.948L342.818 185.075C343.438 185.57 343.535 186.475 343.039 187.094C342.543 187.713 341.64 187.814 341.023 187.318L339.612 186.195C338.99 185.7 338.889 184.794 339.385 184.172C339.881 183.55 340.787 183.45 341.41 183.945V183.948Z" fill="#7D97F4"/>
<path d="M346.102 187.681L347.522 188.792C348.142 189.279 348.251 190.175 347.764 190.794C347.277 191.413 346.383 191.525 345.763 191.039L344.34 189.93C343.717 189.444 343.605 188.548 344.092 187.925C344.579 187.303 345.476 187.191 346.102 187.678V187.681Z" fill="#7D97F4"/>
<path d="M350.836 191.352L352.27 192.44L352.273 192.443C352.896 192.917 353.02 193.808 352.545 194.43C352.069 195.052 351.184 195.176 350.558 194.704L349.115 193.616C348.489 193.144 348.365 192.251 348.837 191.626C349.31 191.001 350.204 190.877 350.83 191.349L350.833 191.352H350.836Z" fill="#7D97F4"/>
<path d="M355.622 194.941L357.077 196.005C357.706 196.465 357.845 197.347 357.384 197.975C356.924 198.603 356.044 198.741 355.415 198.284L353.957 197.226C353.326 196.769 353.187 195.884 353.644 195.254C354.102 194.623 354.987 194.484 355.619 194.941H355.622Z" fill="#7D97F4"/>
<path d="M360.477 198.428L361.956 199.46C362.59 199.902 362.747 200.775 362.304 201.409C361.861 202.043 360.991 202.202 360.356 201.76L358.874 200.734C358.237 200.292 358.077 199.419 358.52 198.782C358.963 198.145 359.837 197.986 360.474 198.428H360.477Z" fill="#7D97F4"/>
<path d="M365.407 201.801L366.912 202.795C367.552 203.219 367.73 204.08 367.305 204.723C366.88 205.363 366.021 205.543 365.38 205.118L363.872 204.13C363.228 203.709 363.048 202.845 363.47 202.199C363.893 201.557 364.757 201.377 365.404 201.798L365.407 201.801Z" fill="#7D97F4"/>
<path d="M370.416 205.049L371.948 206.002C372.592 206.403 372.789 207.249 372.388 207.892C371.989 208.531 371.148 208.729 370.505 208.337L368.967 207.396C368.318 206.998 368.114 206.152 368.512 205.503C368.911 204.855 369.758 204.651 370.407 205.049H370.416Z" fill="#7D97F4"/>
<path d="M375.518 208.143L377.079 209.046C377.726 209.42 377.947 210.246 377.572 210.891C377.2 211.534 376.377 211.755 375.73 211.39L374.163 210.496C373.511 210.125 373.283 209.296 373.655 208.645C374.027 207.993 374.857 207.766 375.509 208.138L375.518 208.143Z" fill="#7D97F4"/>
<path d="M380.715 211.065L382.309 211.912C382.958 212.257 383.206 213.061 382.861 213.713C382.515 214.359 381.715 214.606 381.066 214.267L379.469 213.433C378.814 213.091 378.56 212.283 378.902 211.628C379.245 210.974 380.054 210.72 380.709 211.062L380.715 211.065Z" fill="#7D97F4"/>
<path d="M386.015 213.788L387.641 214.572C388.294 214.888 388.568 215.669 388.255 216.324C387.943 216.972 387.163 217.246 386.511 216.94L384.879 216.167C384.221 215.855 383.94 215.071 384.253 214.413C384.566 213.756 385.351 213.476 386.009 213.788H386.015Z" fill="#7D97F4"/>
<path d="M391.42 216.292L393.076 217.003C393.731 217.283 394.035 218.043 393.755 218.698C393.474 219.349 392.719 219.653 392.066 219.379L390.405 218.68C389.743 218.403 389.434 217.642 389.711 216.982C389.988 216.321 390.75 216.012 391.411 216.289L391.42 216.292Z" fill="#7D97F4"/>
<path d="M396.927 218.548L398.615 219.179C399.273 219.424 399.607 220.158 399.362 220.816C399.117 221.47 398.388 221.803 397.733 221.564L396.041 220.945C395.377 220.703 395.038 219.969 395.283 219.306C395.525 218.643 396.26 218.304 396.924 218.548H396.927Z" fill="#7D97F4"/>
<path d="M402.526 220.536L404.244 221.081C404.902 221.29 405.268 221.992 405.058 222.652C404.849 223.307 404.152 223.673 403.494 223.469L401.773 222.935C401.109 222.729 400.737 222.027 400.944 221.364C401.15 220.701 401.853 220.329 402.517 220.536H402.526Z" fill="#7D97F4"/>
<path d="M408.224 222.225L409.972 222.676C410.63 222.847 411.025 223.516 410.857 224.176C410.689 224.831 410.019 225.226 409.363 225.064L407.613 224.625C406.949 224.459 406.548 223.787 406.713 223.124C406.878 222.46 407.551 222.06 408.215 222.225H408.224Z" fill="#7D97F4"/>
<path d="M414 223.585L415.771 223.927C416.43 224.054 416.858 224.688 416.731 225.346C416.604 226 415.972 226.428 415.32 226.307L413.546 225.977C412.885 225.853 412.448 225.219 412.572 224.558C412.696 223.898 413.33 223.462 413.992 223.585H414Z" fill="#7D97F4"/>
<path d="M419.852 224.583L421.64 224.81C422.293 224.893 422.756 225.491 422.671 226.143C422.588 226.791 421.995 227.251 421.345 227.175L419.554 226.959C418.895 226.88 418.429 226.284 418.509 225.627C418.589 224.969 419.185 224.503 419.843 224.583H419.852Z" fill="#7D97F4"/>
<path d="M425.755 225.201L427.556 225.313C428.202 225.355 428.692 225.909 428.654 226.555C428.613 227.197 428.061 227.687 427.42 227.651L425.62 227.551C424.97 227.516 424.472 226.959 424.51 226.31C424.545 225.661 425.103 225.163 425.752 225.201H425.755Z" fill="#7D97F4"/>
<path d="M431.681 225.435L433.485 225.426C434.122 225.423 434.639 225.936 434.642 226.57C434.645 227.204 434.134 227.72 433.503 227.725L431.699 227.746C431.059 227.752 430.536 227.242 430.527 226.602C430.521 225.962 431.032 225.441 431.673 225.432L431.681 225.435Z" fill="#7D97F4"/>
<path d="M437.61 225.265L439.408 225.132C440.03 225.085 440.573 225.554 440.621 226.176C440.668 226.795 440.202 227.338 439.585 227.388L437.787 227.532C437.161 227.582 436.612 227.116 436.562 226.491C436.512 225.866 436.978 225.318 437.604 225.268L437.61 225.265Z" fill="#7D97F4"/>
<path d="M443.51 224.676L445.292 224.411C445.9 224.32 446.464 224.738 446.556 225.346C446.644 225.95 446.231 226.513 445.626 226.607L443.843 226.885C443.232 226.979 442.663 226.563 442.568 225.953C442.474 225.343 442.89 224.774 443.501 224.679L443.51 224.676Z" fill="#7D97F4"/>
<path d="M449.349 223.652L451.108 223.251C451.695 223.115 452.28 223.484 452.416 224.07C452.548 224.654 452.185 225.238 451.601 225.374L449.845 225.786C449.254 225.925 448.664 225.559 448.525 224.97C448.387 224.38 448.753 223.79 449.343 223.652H449.349Z" fill="#7D97F4"/>
<path d="M455.081 222.173L456.802 221.631C457.366 221.451 457.968 221.764 458.148 222.33C458.325 222.89 458.015 223.488 457.457 223.671L455.742 224.225C455.176 224.408 454.568 224.099 454.385 223.533C454.202 222.967 454.512 222.359 455.078 222.176L455.081 222.173Z" fill="#7D97F4"/>
<path d="M460.668 220.223L462.336 219.533C462.87 219.312 463.484 219.565 463.705 220.102C463.927 220.633 463.676 221.243 463.144 221.467L461.483 222.172C460.946 222.399 460.326 222.148 460.096 221.612C459.868 221.075 460.119 220.456 460.656 220.226L460.668 220.223Z" fill="#7D97F4"/>
<path d="M466.063 217.795L467.66 216.957C468.155 216.698 468.769 216.89 469.032 217.385C469.292 217.877 469.103 218.488 468.613 218.75L467.025 219.605C466.526 219.873 465.903 219.688 465.635 219.189C465.366 218.691 465.552 218.069 466.051 217.801C466.054 217.801 466.06 217.795 466.063 217.795Z" fill="#7D97F4"/>
<path d="M471.206 214.88L472.714 213.895C473.169 213.598 473.777 213.724 474.075 214.179C474.37 214.63 474.246 215.231 473.8 215.532L472.304 216.534C471.849 216.838 471.232 216.717 470.925 216.263C470.621 215.809 470.742 215.193 471.197 214.886C471.2 214.886 471.206 214.88 471.206 214.88Z" fill="#7D97F4"/>
<path d="M476.033 211.48L477.429 210.339C477.836 210.008 478.433 210.067 478.766 210.471C479.097 210.875 479.038 211.465 478.639 211.798L477.255 212.954C476.848 213.293 476.242 213.24 475.903 212.833C475.564 212.426 475.617 211.822 476.024 211.483C476.024 211.486 476.03 211.48 476.033 211.48Z" fill="#7D97F4"/>
<path d="M480.454 207.57L481.714 206.282C482.069 205.919 482.647 205.913 483.01 206.267C483.37 206.618 483.379 207.193 483.034 207.556L481.788 208.859C481.434 209.227 480.849 209.242 480.478 208.888C480.109 208.534 480.094 207.951 480.448 207.579C480.448 207.576 480.451 207.57 480.454 207.57Z" fill="#7D97F4"/>
<path d="M484.424 203.193L485.54 201.778C485.841 201.394 486.396 201.33 486.78 201.63C487.16 201.928 487.228 202.479 486.933 202.86L485.835 204.29C485.534 204.682 484.973 204.753 484.584 204.455C484.191 204.154 484.12 203.594 484.418 203.205C484.418 203.199 484.421 203.193 484.424 203.193Z" fill="#7D97F4"/>
<path d="M487.906 198.414L488.865 196.89C489.116 196.492 489.639 196.374 490.037 196.622C490.433 196.869 490.554 197.388 490.309 197.783L489.367 199.319C489.119 199.723 488.591 199.85 488.184 199.602C487.779 199.355 487.652 198.827 487.9 198.42C487.903 198.42 487.906 198.414 487.906 198.414Z" fill="#7D97F4"/>
<path d="M490.874 193.293L491.668 191.674C491.865 191.27 492.355 191.102 492.76 191.3C493.161 191.497 493.329 191.981 493.137 192.382L492.361 194.009C492.163 194.422 491.67 194.596 491.26 194.398C490.847 194.201 490.673 193.708 490.871 193.299L490.874 193.293Z" fill="#7D97F4"/>
<path d="M493.283 187.888L493.9 186.196C494.048 185.789 494.497 185.579 494.904 185.727C495.308 185.874 495.518 186.317 495.376 186.72L494.777 188.419C494.632 188.831 494.178 189.05 493.765 188.902C493.351 188.758 493.133 188.304 493.281 187.891C493.283 187.894 493.283 187.888 493.283 187.888Z" fill="#7D97F4"/>
<path d="M495.097 182.253L495.522 180.502C495.619 180.101 496.024 179.854 496.428 179.951C496.827 180.048 497.074 180.449 496.983 180.847L496.576 182.601C496.481 183.011 496.074 183.265 495.664 183.17C495.253 183.076 494.999 182.669 495.094 182.259L495.097 182.253Z" fill="#7D97F4"/>
<path d="M496.265 176.451L496.484 174.661C496.531 174.269 496.888 173.989 497.281 174.036C497.67 174.084 497.951 174.437 497.906 174.827L497.709 176.616C497.664 177.014 497.304 177.303 496.906 177.259C496.507 177.215 496.218 176.855 496.262 176.457L496.265 176.451Z" fill="#7D97F4"/>
<path d="M496.724 170.555L496.715 168.753C496.712 168.376 497.019 168.069 497.397 168.066C497.772 168.063 498.078 168.364 498.081 168.739L498.108 170.54C498.114 170.923 497.807 171.236 497.426 171.242C497.043 171.248 496.73 170.941 496.724 170.561V170.555Z" fill="#7D97F4"/>
<path d="M496.43 164.648L496.182 162.865C496.132 162.511 496.38 162.181 496.737 162.133C497.091 162.083 497.416 162.328 497.469 162.679L497.738 164.46C497.791 164.819 497.543 165.156 497.183 165.209C496.823 165.262 496.486 165.014 496.433 164.654C496.43 164.654 496.43 164.648 496.43 164.648Z" fill="#7D97F4"/>
<path d="M495.333 158.841L494.837 157.11C494.742 156.783 494.931 156.441 495.259 156.347C495.584 156.252 495.923 156.441 496.02 156.762L496.537 158.487C496.637 158.817 496.448 159.168 496.115 159.265C495.784 159.366 495.433 159.177 495.336 158.844C495.333 158.847 495.333 158.841 495.333 158.841Z" fill="#7D97F4"/>
</g>
<defs>
<linearGradient id="paint0_linear_2748_6367" x1="638" y1="216.42" x2="0.000304222" y2="216.42" gradientUnits="userSpaceOnUse">
<stop stop-color="#DAE3FE"/>
<stop offset="1" stop-color="#E9EFFD"/>
</linearGradient>
<linearGradient id="paint1_linear_2748_6367" x1="501.596" y1="4.25876" x2="452.971" y2="90.9943" gradientUnits="userSpaceOnUse">
<stop stop-color="#FE7062"/>
<stop offset="1" stop-color="#FF928E"/>
</linearGradient>
<linearGradient id="paint2_linear_2748_6367" x1="536.81" y1="59.6317" x2="460.77" y2="177.359" gradientUnits="userSpaceOnUse">
<stop stop-color="#FE7062"/>
<stop offset="1" stop-color="#FF928E"/>
</linearGradient>
<linearGradient id="paint3_linear_2748_6367" x1="601.636" y1="42.363" x2="556.556" y2="145.012" gradientUnits="userSpaceOnUse">
<stop stop-color="#FE7062"/>
<stop offset="1" stop-color="#FF928E"/>
</linearGradient>
<linearGradient id="paint4_linear_2748_6367" x1="460.127" y1="94.9368" x2="135.239" y2="522.138" gradientUnits="userSpaceOnUse">
<stop stop-color="#09005D"/>
<stop offset="1" stop-color="#1A0F91"/>
</linearGradient>
<linearGradient id="paint5_linear_2748_6367" x1="209.906" y1="393.353" x2="252.758" y2="393.353" gradientUnits="userSpaceOnUse">
<stop stop-color="#DAE3FE"/>
<stop offset="1" stop-color="#E9EFFD"/>
</linearGradient>
<linearGradient id="paint6_linear_2748_6367" x1="209.904" y1="350.03" x2="211.028" y2="350.03" gradientUnits="userSpaceOnUse">
<stop stop-color="#DAE3FE"/>
<stop offset="1" stop-color="#E9EFFD"/>
</linearGradient>
<linearGradient id="paint7_linear_2748_6367" x1="175.436" y1="485.045" x2="414.446" y2="132.033" gradientUnits="userSpaceOnUse">
<stop stop-color="#4042E2"/>
<stop offset="1" stop-color="#4F52FF"/>
</linearGradient>
<linearGradient id="paint8_linear_2748_6367" x1="247.742" y1="153.678" x2="326.099" y2="153.678" gradientUnits="userSpaceOnUse">
<stop stop-color="#DAE3FE"/>
<stop offset="1" stop-color="#E9EFFD"/>
</linearGradient>
<linearGradient id="paint9_linear_2748_6367" x1="302.47" y1="121.275" x2="202.598" y2="270.125" gradientUnits="userSpaceOnUse">
<stop stop-color="#FE7062"/>
<stop offset="1" stop-color="#FF928E"/>
</linearGradient>
<linearGradient id="paint10_linear_2748_6367" x1="319.549" y1="132.738" x2="219.677" y2="281.588" gradientUnits="userSpaceOnUse">
<stop stop-color="#FE7062"/>
<stop offset="1" stop-color="#FF928E"/>
</linearGradient>
<linearGradient id="paint11_linear_2748_6367" x1="340.411" y1="125.472" x2="419.001" y2="125.472" gradientUnits="userSpaceOnUse">
<stop stop-color="#DAE3FE"/>
<stop offset="1" stop-color="#E9EFFD"/>
</linearGradient>
<linearGradient id="paint12_linear_2748_6367" x1="340.411" y1="136.956" x2="419.001" y2="136.956" gradientUnits="userSpaceOnUse">
<stop stop-color="#DAE3FE"/>
<stop offset="1" stop-color="#E9EFFD"/>
</linearGradient>
<linearGradient id="paint13_linear_2748_6367" x1="340.411" y1="148.605" x2="419.001" y2="148.605" gradientUnits="userSpaceOnUse">
<stop stop-color="#DAE3FE"/>
<stop offset="1" stop-color="#E9EFFD"/>
</linearGradient>
<linearGradient id="paint14_linear_2748_6367" x1="248.252" y1="204.784" x2="426.149" y2="204.784" gradientUnits="userSpaceOnUse">
<stop stop-color="#DAE3FE"/>
<stop offset="1" stop-color="#E9EFFD"/>
</linearGradient>
<linearGradient id="paint15_linear_2748_6367" x1="248.255" y1="216.267" x2="426.152" y2="216.267" gradientUnits="userSpaceOnUse">
<stop stop-color="#DAE3FE"/>
<stop offset="1" stop-color="#E9EFFD"/>
</linearGradient>
<linearGradient id="paint16_linear_2748_6367" x1="246.789" y1="243.199" x2="271.311" y2="243.199" gradientUnits="userSpaceOnUse">
<stop stop-color="#DAE3FE"/>
<stop offset="1" stop-color="#E9EFFD"/>
</linearGradient>
<linearGradient id="paint17_linear_2748_6367" x1="276.441" y1="242.384" x2="320.694" y2="242.384" gradientUnits="userSpaceOnUse">
<stop stop-color="#DAE3FE"/>
<stop offset="1" stop-color="#E9EFFD"/>
</linearGradient>
<linearGradient id="paint18_linear_2748_6367" x1="333.201" y1="243.199" x2="357.724" y2="243.199" gradientUnits="userSpaceOnUse">
<stop stop-color="#DAE3FE"/>
<stop offset="1" stop-color="#E9EFFD"/>
</linearGradient>
<linearGradient id="paint19_linear_2748_6367" x1="362.85" y1="242.384" x2="407.103" y2="242.384" gradientUnits="userSpaceOnUse">
<stop stop-color="#DAE3FE"/>
<stop offset="1" stop-color="#E9EFFD"/>
</linearGradient>
<linearGradient id="paint20_linear_2748_6367" x1="254.384" y1="281.975" x2="272.532" y2="281.975" gradientUnits="userSpaceOnUse">
<stop stop-color="#DAE3FE"/>
<stop offset="1" stop-color="#E9EFFD"/>
</linearGradient>
<linearGradient id="paint21_linear_2748_6367" x1="284.461" y1="282.753" x2="426.272" y2="282.753" gradientUnits="userSpaceOnUse">
<stop stop-color="#DAE3FE"/>
<stop offset="1" stop-color="#E9EFFD"/>
</linearGradient>
<linearGradient id="paint22_linear_2748_6367" x1="299.87" y1="216.653" x2="225.255" y2="344.142" gradientUnits="userSpaceOnUse">
<stop stop-color="#FE7062"/>
<stop offset="1" stop-color="#FF928E"/>
</linearGradient>
<linearGradient id="paint23_linear_2748_6367" x1="254.384" y1="313.31" x2="272.532" y2="313.31" gradientUnits="userSpaceOnUse">
<stop stop-color="#DAE3FE"/>
<stop offset="1" stop-color="#E9EFFD"/>
</linearGradient>
<linearGradient id="paint24_linear_2748_6367" x1="284.461" y1="314.086" x2="426.272" y2="314.086" gradientUnits="userSpaceOnUse">
<stop stop-color="#DAE3FE"/>
<stop offset="1" stop-color="#E9EFFD"/>
</linearGradient>
<linearGradient id="paint25_linear_2748_6367" x1="313.552" y1="224.661" x2="238.937" y2="352.151" gradientUnits="userSpaceOnUse">
<stop stop-color="#FE7062"/>
<stop offset="1" stop-color="#FF928E"/>
</linearGradient>
<linearGradient id="paint26_linear_2748_6367" x1="254.384" y1="344.645" x2="272.532" y2="344.645" gradientUnits="userSpaceOnUse">
<stop stop-color="#DAE3FE"/>
<stop offset="1" stop-color="#E9EFFD"/>
</linearGradient>
<linearGradient id="paint27_linear_2748_6367" x1="284.461" y1="345.421" x2="426.272" y2="345.421" gradientUnits="userSpaceOnUse">
<stop stop-color="#DAE3FE"/>
<stop offset="1" stop-color="#E9EFFD"/>
</linearGradient>
<linearGradient id="paint28_linear_2748_6367" x1="325.056" y1="256.071" x2="226.861" y2="393.134" gradientUnits="userSpaceOnUse">
<stop stop-color="#FE7062"/>
<stop offset="1" stop-color="#FF928E"/>
</linearGradient>
<linearGradient id="paint29_linear_2748_6367" x1="254.384" y1="375.978" x2="272.532" y2="375.978" gradientUnits="userSpaceOnUse">
<stop stop-color="#DAE3FE"/>
<stop offset="1" stop-color="#E9EFFD"/>
</linearGradient>
<linearGradient id="paint30_linear_2748_6367" x1="284.461" y1="376.756" x2="426.272" y2="376.756" gradientUnits="userSpaceOnUse">
<stop stop-color="#DAE3FE"/>
<stop offset="1" stop-color="#E9EFFD"/>
</linearGradient>
<linearGradient id="paint31_linear_2748_6367" x1="340.917" y1="240.677" x2="266.302" y2="368.166" gradientUnits="userSpaceOnUse">
<stop stop-color="#FE7062"/>
<stop offset="1" stop-color="#FF928E"/>
</linearGradient>
<linearGradient id="paint32_linear_2748_6367" x1="365.044" y1="17.5293" x2="270.771" y2="141.68" gradientUnits="userSpaceOnUse">
<stop stop-color="#09005D"/>
<stop offset="1" stop-color="#1A0F91"/>
</linearGradient>
<linearGradient id="paint33_linear_2748_6367" x1="320.158" y1="56.5261" x2="335.28" y2="56.5261" gradientUnits="userSpaceOnUse">
<stop stop-color="#DAE3FE"/>
<stop offset="1" stop-color="#E9EFFD"/>
</linearGradient>
<linearGradient id="paint34_linear_2748_6367" x1="375.402" y1="25.393" x2="281.129" y2="149.543" gradientUnits="userSpaceOnUse">
<stop stop-color="#09005D"/>
<stop offset="1" stop-color="#1A0F91"/>
</linearGradient>
<linearGradient id="paint35_linear_2748_6367" x1="311.356" y1="75.2616" x2="315.664" y2="75.2616" gradientUnits="userSpaceOnUse">
<stop stop-color="#DAE3FE"/>
<stop offset="1" stop-color="#E9EFFD"/>
</linearGradient>
<linearGradient id="paint36_linear_2748_6367" x1="290.938" y1="80.1912" x2="309.294" y2="80.1912" gradientUnits="userSpaceOnUse">
<stop stop-color="#DAE3FE"/>
<stop offset="1" stop-color="#E9EFFD"/>
</linearGradient>
<linearGradient id="paint37_linear_2748_6367" x1="363.505" y1="32.9806" x2="298.431" y2="152.601" gradientUnits="userSpaceOnUse">
<stop stop-color="#4042E2"/>
<stop offset="1" stop-color="#4F52FF"/>
</linearGradient>
<linearGradient id="paint38_linear_2748_6367" x1="509.831" y1="426.785" x2="520.384" y2="360.326" gradientUnits="userSpaceOnUse">
<stop stop-color="#4042E2"/>
<stop offset="1" stop-color="#4F52FF"/>
</linearGradient>
<linearGradient id="paint39_linear_2748_6367" x1="513.963" y1="427.267" x2="524.809" y2="358.965" gradientUnits="userSpaceOnUse">
<stop stop-color="#4042E2"/>
<stop offset="1" stop-color="#4F52FF"/>
</linearGradient>
<linearGradient id="paint40_linear_2748_6367" x1="505.899" y1="426.16" x2="516.453" y2="359.701" gradientUnits="userSpaceOnUse">
<stop stop-color="#4042E2"/>
<stop offset="1" stop-color="#4F52FF"/>
</linearGradient>
<linearGradient id="paint41_linear_2748_6367" x1="485.034" y1="403.087" x2="489.943" y2="433.162" gradientUnits="userSpaceOnUse">
<stop stop-color="#FF928E"/>
<stop offset="1" stop-color="#FEB3B1"/>
</linearGradient>
<linearGradient id="paint42_linear_2748_6367" x1="481.538" y1="407.118" x2="476.432" y2="485.502" gradientUnits="userSpaceOnUse">
<stop stop-color="#09005D"/>
<stop offset="1" stop-color="#1A0F91"/>
</linearGradient>
<linearGradient id="paint43_linear_2748_6367" x1="438.311" y1="404.39" x2="483.326" y2="362.474" gradientUnits="userSpaceOnUse">
<stop stop-color="#FF928E"/>
<stop offset="1" stop-color="#FEB3B1"/>
</linearGradient>
<linearGradient id="paint44_linear_2748_6367" x1="464.7" y1="348.587" x2="546.953" y2="348.587" gradientUnits="userSpaceOnUse">
<stop stop-color="#09005D"/>
<stop offset="1" stop-color="#1A0F91"/>
</linearGradient>
<linearGradient id="paint45_linear_2748_6367" x1="432.155" y1="403.901" x2="427.049" y2="482.285" gradientUnits="userSpaceOnUse">
<stop stop-color="#09005D"/>
<stop offset="1" stop-color="#1A0F91"/>
</linearGradient>
<linearGradient id="paint46_linear_2748_6367" x1="545.761" y1="241.698" x2="517.676" y2="269.204" gradientUnits="userSpaceOnUse">
<stop stop-color="#09005D"/>
<stop offset="1" stop-color="#1A0F91"/>
</linearGradient>
<linearGradient id="paint47_linear_2748_6367" x1="513.447" y1="306.018" x2="499.31" y2="369.709" gradientUnits="userSpaceOnUse">
<stop stop-color="#FE7062"/>
<stop offset="1" stop-color="#FF928E"/>
</linearGradient>
<linearGradient id="paint48_linear_2748_6367" x1="494.14" y1="248.885" x2="501.406" y2="272.869" gradientUnits="userSpaceOnUse">
<stop stop-color="#FF928E"/>
<stop offset="1" stop-color="#FEB3B1"/>
</linearGradient>
<linearGradient id="paint49_linear_2748_6367" x1="480.566" y1="237.258" x2="502.594" y2="249.071" gradientUnits="userSpaceOnUse">
<stop stop-color="#FF928E"/>
<stop offset="1" stop-color="#FEB3B1"/>
</linearGradient>
<linearGradient id="paint50_linear_2748_6367" x1="511.12" y1="210.131" x2="491.194" y2="244.068" gradientUnits="userSpaceOnUse">
<stop stop-color="#09005D"/>
<stop offset="1" stop-color="#1A0F91"/>
</linearGradient>
<linearGradient id="paint51_linear_2748_6367" x1="481.608" y1="235.425" x2="503.636" y2="247.238" gradientUnits="userSpaceOnUse">
<stop stop-color="#FF928E"/>
<stop offset="1" stop-color="#FEB3B1"/>
</linearGradient>
<linearGradient id="paint52_linear_2748_6367" x1="556.488" y1="316.349" x2="495.296" y2="326.985" gradientUnits="userSpaceOnUse">
<stop stop-color="#FF928E"/>
<stop offset="1" stop-color="#FEB3B1"/>
</linearGradient>
<linearGradient id="paint53_linear_2748_6367" x1="111.249" y1="359.461" x2="62.8727" y2="469.065" gradientUnits="userSpaceOnUse">
<stop stop-color="#4042E2"/>
<stop offset="1" stop-color="#4F52FF"/>
</linearGradient>
<linearGradient id="paint54_linear_2748_6367" x1="151.249" y1="377.118" x2="102.873" y2="486.722" gradientUnits="userSpaceOnUse">
<stop stop-color="#4042E2"/>
<stop offset="1" stop-color="#4F52FF"/>
</linearGradient>
<linearGradient id="paint55_linear_2748_6367" x1="115.828" y1="375.463" x2="120.541" y2="325.635" gradientUnits="userSpaceOnUse">
<stop stop-color="#FE7062"/>
<stop offset="1" stop-color="#FF928E"/>
</linearGradient>
<linearGradient id="paint56_linear_2748_6367" x1="182.198" y1="259.024" x2="188.148" y2="288.69" gradientUnits="userSpaceOnUse">
<stop stop-color="#FF928E"/>
<stop offset="1" stop-color="#FEB3B1"/>
</linearGradient>
<linearGradient id="paint57_linear_2748_6367" x1="172.437" y1="251.271" x2="140.917" y2="292.442" gradientUnits="userSpaceOnUse">
<stop stop-color="#4042E2"/>
<stop offset="1" stop-color="#4F52FF"/>
</linearGradient>
<linearGradient id="paint58_linear_2748_6367" x1="163.987" y1="432.996" x2="198.218" y2="432.996" gradientUnits="userSpaceOnUse">
<stop stop-color="#FE7062"/>
<stop offset="1" stop-color="#FF928E"/>
</linearGradient>
<linearGradient id="paint59_linear_2748_6367" x1="190.36" y1="367.245" x2="181.027" y2="431.797" gradientUnits="userSpaceOnUse">
<stop stop-color="#020039"/>
<stop offset="1" stop-color="#090056"/>
</linearGradient>
<linearGradient id="paint60_linear_2748_6367" x1="165.696" y1="422.69" x2="174.958" y2="422.69" gradientUnits="userSpaceOnUse">
<stop stop-color="#FF928E"/>
<stop offset="1" stop-color="#FEB3B1"/>
</linearGradient>
<linearGradient id="paint61_linear_2748_6367" x1="217.68" y1="426.219" x2="245.318" y2="426.219" gradientUnits="userSpaceOnUse">
<stop stop-color="#FE7062"/>
<stop offset="1" stop-color="#FF928E"/>
</linearGradient>
<linearGradient id="paint62_linear_2748_6367" x1="236.689" y1="373.943" x2="227.356" y2="438.495" gradientUnits="userSpaceOnUse">
<stop stop-color="#020039"/>
<stop offset="1" stop-color="#090056"/>
</linearGradient>
<linearGradient id="paint63_linear_2748_6367" x1="151.142" y1="238.843" x2="151.142" y2="299.579" gradientUnits="userSpaceOnUse">
<stop stop-color="#020039"/>
<stop offset="1" stop-color="#090056"/>
</linearGradient>
<linearGradient id="paint64_linear_2748_6367" x1="209.566" y1="423.47" x2="220.624" y2="423.47" gradientUnits="userSpaceOnUse">
<stop stop-color="#FF928E"/>
<stop offset="1" stop-color="#FEB3B1"/>
</linearGradient>
<linearGradient id="paint65_linear_2748_6367" x1="80.4759" y1="539.746" x2="153.543" y2="383.422" gradientUnits="userSpaceOnUse">
<stop stop-color="#09005D"/>
<stop offset="1" stop-color="#1A0F91"/>
</linearGradient>
<linearGradient id="paint66_linear_2748_6367" x1="138.678" y1="266.61" x2="66.6502" y2="387.39" gradientUnits="userSpaceOnUse">
<stop stop-color="#4042E2"/>
<stop offset="1" stop-color="#4F52FF"/>
</linearGradient>
<linearGradient id="paint67_linear_2748_6367" x1="129.096" y1="244.176" x2="118.492" y2="278.089" gradientUnits="userSpaceOnUse">
<stop stop-color="#FF928E"/>
<stop offset="1" stop-color="#FEB3B1"/>
</linearGradient>
<linearGradient id="paint68_linear_2748_6367" x1="162.988" y1="292.214" x2="191.808" y2="292.214" gradientUnits="userSpaceOnUse">
<stop stop-color="#4042E2"/>
<stop offset="1" stop-color="#4F52FF"/>
</linearGradient>
<linearGradient id="paint69_linear_2748_6367" x1="160.889" y1="302.25" x2="104.259" y2="341.521" gradientUnits="userSpaceOnUse">
<stop stop-color="#FE7062"/>
<stop offset="1" stop-color="#FF928E"/>
</linearGradient>
<linearGradient id="paint70_linear_2748_6367" x1="143.468" y1="222.986" x2="130.074" y2="267.744" gradientUnits="userSpaceOnUse">
<stop stop-color="#FF928E"/>
<stop offset="1" stop-color="#FEB3B1"/>
</linearGradient>
<linearGradient id="paint71_linear_2748_6367" x1="126.42" y1="238.914" x2="157.983" y2="227.158" gradientUnits="userSpaceOnUse">
<stop stop-color="#09005D"/>
<stop offset="1" stop-color="#1A0F91"/>
</linearGradient>
<linearGradient id="paint72_linear_2748_6367" x1="115.059" y1="265.034" x2="128.142" y2="235.418" gradientUnits="userSpaceOnUse">
<stop stop-color="#FF928E"/>
<stop offset="1" stop-color="#FEB3B1"/>
</linearGradient>
<linearGradient id="paint73_linear_2748_6367" x1="150.416" y1="273.61" x2="78.3874" y2="394.39" gradientUnits="userSpaceOnUse">
<stop stop-color="#4042E2"/>
<stop offset="1" stop-color="#4F52FF"/>
</linearGradient>
<linearGradient id="paint74_linear_2748_6367" x1="123.792" y1="290.343" x2="140.599" y2="290.343" gradientUnits="userSpaceOnUse">
<stop stop-color="#09005D"/>
<stop offset="1" stop-color="#1A0F91"/>
</linearGradient>
<linearGradient id="paint75_linear_2748_6367" x1="106.382" y1="304.053" x2="134.502" y2="304.053" gradientUnits="userSpaceOnUse">
<stop stop-color="#09005D"/>
<stop offset="1" stop-color="#1A0F91"/>
</linearGradient>
<linearGradient id="paint76_linear_2748_6367" x1="147.406" y1="320.562" x2="183.974" y2="291.039" gradientUnits="userSpaceOnUse">
<stop stop-color="#FF928E"/>
<stop offset="1" stop-color="#FEB3B1"/>
</linearGradient>
<linearGradient id="paint77_linear_2748_6367" x1="338.316" y1="315.646" x2="308.341" y2="537.522" gradientUnits="userSpaceOnUse">
<stop stop-color="#4042E2"/>
<stop offset="1" stop-color="#4F52FF"/>
</linearGradient>
<clipPath id="clip0_2748_6367">
<rect width="638" height="437" fill="white"/>
</clipPath>
</defs>
</svg>
